<svg width="370" height="52" viewBox="0 0 370 52" fill="none" xmlns="http://www.w3.org/2000/svg">
<g clip-path="url(#clip0_43_3667)">
<path d="M0.593444 24.4127C0.333677 13.6868 9.20859 2.22507 22.6994 0.601723C30.7693 -0.370037 37.8629 2.03408 43.7148 7.70456C44.7282 8.68755 44.6996 8.87573 43.3551 9.38969C37.2273 11.7826 31.0937 14.168 24.9545 16.5459C23.5871 17.0767 22.2198 17.6075 20.861 18.158C20.1102 18.4641 19.6478 18.9584 20.0646 19.8094C20.4442 20.5846 21.0351 20.7166 21.8515 20.3964C29.479 17.4175 37.1131 14.4498 44.7539 11.4933C46.2582 10.9091 46.7036 11.0776 47.5599 12.4651C50.4402 17.1469 51.7933 22.2585 51.0768 27.6593C50.0235 35.5823 46.4067 42.1234 39.3045 46.4514C29.9186 52.1724 18.3461 51.4366 9.76523 44.5893C9.44837 44.3365 8.90885 44.1203 8.99735 43.6653C9.07156 43.2749 9.62821 43.2721 9.98218 43.1345C18.211 39.9234 26.4408 36.716 34.6715 33.5124C35.6991 33.1107 36.0503 32.5041 35.6877 31.7514C35.2624 30.8667 34.5202 30.9341 33.7609 31.229C27.1592 33.7885 20.5575 36.3518 13.9558 38.9188C11.889 39.7221 9.82803 40.5403 7.77273 41.3735C7.08763 41.6544 6.6052 41.5617 6.10565 40.9354C2.42609 36.3378 0.524934 31.1448 0.593444 24.4127Z" fill="url(#paint0_linear_43_3667)"/>
<path d="M0.593444 24.4127C0.333677 13.6868 9.20859 2.22507 22.6994 0.601723C30.7693 -0.370037 37.8629 2.03408 43.7148 7.70456C44.7282 8.68755 44.6996 8.87573 43.3551 9.38969C37.2273 11.7826 31.0937 14.168 24.9545 16.5459C23.5871 17.0767 22.2198 17.6075 20.861 18.158C20.1102 18.4641 19.6478 18.9584 20.0646 19.8094C20.4442 20.5846 21.0351 20.7166 21.8515 20.3964C29.479 17.4175 37.1131 14.4498 44.7539 11.4933C46.2582 10.9091 46.7036 11.0776 47.5599 12.4651C50.4402 17.1469 51.7933 22.2585 51.0768 27.6593C50.0235 35.5823 46.4067 42.1234 39.3045 46.4514C29.9186 52.1724 18.3461 51.4366 9.76523 44.5893C9.44837 44.3365 8.90885 44.1203 8.99735 43.6653C9.07156 43.2749 9.62821 43.2721 9.98218 43.1345C18.211 39.9234 26.4408 36.716 34.6715 33.5124C35.6991 33.1107 36.0503 32.5041 35.6877 31.7514C35.2624 30.8667 34.5202 30.9341 33.7609 31.229C27.1592 33.7885 20.5575 36.3518 13.9558 38.9188C11.889 39.7221 9.82803 40.5403 7.77273 41.3735C7.08763 41.6544 6.6052 41.5617 6.10565 40.9354C2.42609 36.3378 0.524934 31.1448 0.593444 24.4127Z" fill="url(#paint1_linear_43_3667)"/>
<path d="M62.1888 7.75C62.1572 7.75 62.1304 7.73896 62.1083 7.71687C62.0862 7.69478 62.0752 7.66795 62.0752 7.6364V4.55024C62.0752 4.51868 62.0862 4.49186 62.1083 4.46977C62.1304 4.44768 62.1572 4.43664 62.1888 4.43664H62.6337C62.6684 4.43664 62.6953 4.44768 62.7142 4.46977C62.7363 4.49186 62.7473 4.51868 62.7473 4.55024V7.6364C62.7473 7.66795 62.7363 7.69478 62.7142 7.71687C62.6953 7.73896 62.6684 7.75 62.6337 7.75H62.1888ZM63.6032 7.75C63.5717 7.75 63.5449 7.73896 63.5228 7.71687C63.5007 7.69478 63.4896 7.66795 63.4896 7.6364V4.55024C63.4896 4.51868 63.5007 4.49186 63.5228 4.46977C63.5449 4.44768 63.5717 4.43664 63.6032 4.43664H64.0482C64.0829 4.43664 64.1097 4.44768 64.1287 4.46977C64.1507 4.49186 64.1618 4.51868 64.1618 4.55024V7.6364C64.1618 7.66795 64.1507 7.69478 64.1287 7.71687C64.1097 7.73896 64.0829 7.75 64.0482 7.75H63.6032ZM65.7467 7.75C65.7151 7.75 65.6883 7.73896 65.6662 7.71687C65.6441 7.69478 65.6331 7.66795 65.6331 7.6364V5.01884H64.7574C64.7258 5.01884 64.699 5.0078 64.6769 4.98571C64.6548 4.96362 64.6438 4.9368 64.6438 4.90524V4.55497C64.6438 4.52026 64.6548 4.49186 64.6769 4.46977C64.699 4.44768 64.7258 4.43664 64.7574 4.43664H67.1714C67.2061 4.43664 67.2345 4.44768 67.2566 4.46977C67.2787 4.49186 67.2897 4.52026 67.2897 4.55497V4.90524C67.2897 4.9368 67.2787 4.96362 67.2566 4.98571C67.2345 5.0078 67.2061 5.01884 67.1714 5.01884H66.3005V7.6364C66.3005 7.66795 66.2894 7.69478 66.2673 7.71687C66.2452 7.73896 66.2168 7.75 66.1821 7.75H65.7467ZM68.8497 7.75C68.8182 7.75 68.7913 7.73896 68.7692 7.71687C68.7472 7.69478 68.7361 7.66795 68.7361 7.6364V4.55497C68.7361 4.52026 68.7472 4.49186 68.7692 4.46977C68.7913 4.44768 68.8182 4.43664 68.8497 4.43664H70.0757C70.4575 4.43664 70.7588 4.52499 70.9797 4.70171C71.2006 4.87842 71.3111 5.1356 71.3111 5.47325C71.3111 5.70676 71.2527 5.90083 71.1359 6.05545C71.0223 6.21008 70.8693 6.3221 70.6768 6.39152L71.3679 7.59853C71.3773 7.61747 71.3821 7.63482 71.3821 7.6506C71.3821 7.679 71.371 7.70267 71.3489 7.7216C71.33 7.74053 71.3079 7.75 71.2827 7.75H70.8519C70.7983 7.75 70.7573 7.7358 70.7289 7.7074C70.7005 7.679 70.6784 7.6506 70.6626 7.6222L70.052 6.50039H69.3941V7.6364C69.3941 7.66795 69.383 7.69478 69.3609 7.71687C69.342 7.73896 69.3152 7.75 69.2805 7.75H68.8497ZM69.3941 5.96552H70.0615C70.2539 5.96552 70.3975 5.92292 70.4922 5.83772C70.5869 5.74936 70.6342 5.62629 70.6342 5.46851C70.6342 5.31073 70.5869 5.18767 70.4922 5.09931C70.4007 5.0078 70.2571 4.96204 70.0615 4.96204H69.3941V5.96552ZM72.9251 7.79733C72.6727 7.79733 72.4597 7.75316 72.2861 7.6648C72.1157 7.57644 71.9847 7.4518 71.8932 7.29086C71.8049 7.12993 71.7544 6.94217 71.7418 6.72759C71.7386 6.67079 71.737 6.60137 71.737 6.51932C71.737 6.43728 71.7386 6.36785 71.7418 6.31105C71.7544 6.09332 71.8065 5.90556 71.898 5.74778C71.9926 5.58685 72.1252 5.4622 72.2956 5.37385C72.4691 5.28549 72.679 5.24131 72.9251 5.24131C73.1712 5.24131 73.3795 5.28549 73.5499 5.37385C73.7235 5.4622 73.856 5.58685 73.9475 5.74778C74.0422 5.90556 74.0958 6.09332 74.1085 6.31105C74.1116 6.36785 74.1132 6.43728 74.1132 6.51932C74.1132 6.60137 74.1116 6.67079 74.1085 6.72759C74.0958 6.94217 74.0438 7.12993 73.9523 7.29086C73.8639 7.4518 73.7329 7.57644 73.5594 7.6648C73.389 7.75316 73.1776 7.79733 72.9251 7.79733ZM72.9251 7.32873C73.0924 7.32873 73.2217 7.27666 73.3132 7.17253C73.4048 7.06524 73.4552 6.90904 73.4647 6.70392C73.4679 6.65659 73.4694 6.59506 73.4694 6.51932C73.4694 6.44359 73.4679 6.38205 73.4647 6.33472C73.4552 6.13276 73.4048 5.97814 73.3132 5.87085C73.2217 5.76356 73.0924 5.70992 72.9251 5.70992C72.7579 5.70992 72.6285 5.76356 72.537 5.87085C72.4455 5.97814 72.395 6.13276 72.3855 6.33472C72.3824 6.38205 72.3808 6.44359 72.3808 6.51932C72.3808 6.59506 72.3824 6.65659 72.3855 6.70392C72.395 6.90904 72.4455 7.06524 72.537 7.17253C72.6285 7.27666 72.7579 7.32873 72.9251 7.32873ZM75.7263 7.79733C75.4739 7.79733 75.2609 7.75316 75.0873 7.6648C74.9169 7.57644 74.7859 7.4518 74.6944 7.29086C74.6061 7.12993 74.5556 6.94217 74.543 6.72759C74.5398 6.67079 74.5382 6.60137 74.5382 6.51932C74.5382 6.43728 74.5398 6.36785 74.543 6.31105C74.5556 6.09332 74.6077 5.90556 74.6992 5.74778C74.7938 5.58685 74.9264 5.4622 75.0968 5.37385C75.2703 5.28549 75.4802 5.24131 75.7263 5.24131C75.9724 5.24131 76.1807 5.28549 76.3511 5.37385C76.5247 5.4622 76.6572 5.58685 76.7487 5.74778C76.8434 5.90556 76.897 6.09332 76.9097 6.31105C76.9128 6.36785 76.9144 6.43728 76.9144 6.51932C76.9144 6.60137 76.9128 6.67079 76.9097 6.72759C76.897 6.94217 76.845 7.12993 76.7534 7.29086C76.6651 7.4518 76.5341 7.57644 76.3606 7.6648C76.1902 7.75316 75.9788 7.79733 75.7263 7.79733ZM75.7263 7.32873C75.8936 7.32873 76.0229 7.27666 76.1144 7.17253C76.206 7.06524 76.2564 6.90904 76.2659 6.70392C76.2691 6.65659 76.2706 6.59506 76.2706 6.51932C76.2706 6.44359 76.2691 6.38205 76.2659 6.33472C76.2564 6.13276 76.206 5.97814 76.1144 5.87085C76.0229 5.76356 75.8936 5.70992 75.7263 5.70992C75.5591 5.70992 75.4297 5.76356 75.3382 5.87085C75.2467 5.97814 75.1962 6.13276 75.1867 6.33472C75.1835 6.38205 75.182 6.44359 75.182 6.51932C75.182 6.59506 75.1835 6.65659 75.1867 6.70392C75.1962 6.90904 75.2467 7.06524 75.3382 7.17253C75.4297 7.27666 75.5591 7.32873 75.7263 7.32873ZM77.5524 7.75C77.5209 7.75 77.4941 7.73896 77.472 7.71687C77.4499 7.69478 77.4388 7.66795 77.4388 7.6364V5.40698C77.4388 5.37227 77.4499 5.34387 77.472 5.32178C77.4941 5.29969 77.5209 5.28865 77.5524 5.28865H77.9358C77.9674 5.28865 77.9942 5.29969 78.0163 5.32178C78.0415 5.34387 78.0542 5.37227 78.0542 5.40698V5.60105C78.1267 5.50007 78.2198 5.42276 78.3334 5.36911C78.4502 5.31547 78.5843 5.28865 78.7358 5.28865H78.9298C78.9646 5.28865 78.9914 5.29969 79.0103 5.32178C79.0324 5.34387 79.0434 5.37069 79.0434 5.40225V5.74305C79.0434 5.77461 79.0324 5.80143 79.0103 5.82352C78.9914 5.84561 78.9646 5.85665 78.9298 5.85665H78.5606C78.4092 5.85665 78.2908 5.89925 78.2056 5.98445C78.1236 6.06965 78.0826 6.18641 78.0826 6.33472V7.6364C78.0826 7.66795 78.0715 7.69478 78.0494 7.71687C78.0273 7.73896 77.9989 7.75 77.9642 7.75H77.5524ZM79.5309 7.75C79.4994 7.75 79.4726 7.73896 79.4505 7.71687C79.4284 7.69478 79.4173 7.66795 79.4173 7.6364V4.50291C79.4173 4.47135 79.4284 4.44453 79.4505 4.42244C79.4726 4.40035 79.4994 4.3893 79.5309 4.3893H79.9143C79.9491 4.3893 79.9759 4.40035 79.9948 4.42244C80.0169 4.44453 80.0279 4.47135 80.0279 4.50291V6.12172L80.8232 5.36911C80.8516 5.34387 80.8768 5.32493 80.8989 5.31231C80.921 5.29653 80.9541 5.28865 80.9983 5.28865H81.4385C81.47 5.28865 81.4953 5.29811 81.5142 5.31705C81.5332 5.33598 81.5426 5.36122 81.5426 5.39278C81.5426 5.4054 81.5395 5.4196 81.5332 5.43538C81.5268 5.45116 81.5142 5.46536 81.4953 5.47798L80.5202 6.39152L81.6136 7.5654C81.6452 7.59695 81.661 7.62378 81.661 7.64587C81.661 7.67742 81.6499 7.70267 81.6278 7.7216C81.6089 7.74053 81.5852 7.75 81.5568 7.75H81.1072C81.0598 7.75 81.0251 7.74369 81.003 7.73107C80.9841 7.71529 80.9604 7.69478 80.932 7.66953L80.0279 6.71812V7.6364C80.0279 7.66795 80.0169 7.69478 79.9948 7.71687C79.9759 7.73896 79.9491 7.75 79.9143 7.75H79.5309ZM82.9598 7.79733C82.6095 7.79733 82.3318 7.69636 82.1267 7.4944C81.9216 7.29244 81.8111 7.00528 81.7953 6.63292C81.7922 6.60137 81.7906 6.56192 81.7906 6.51459C81.7906 6.4641 81.7922 6.42466 81.7953 6.39625C81.808 6.15959 81.8616 5.95447 81.9563 5.78092C82.0541 5.60736 82.1882 5.47482 82.3586 5.38331C82.529 5.28865 82.7294 5.24131 82.9598 5.24131C83.2154 5.24131 83.4299 5.29496 83.6035 5.40225C83.7771 5.50638 83.908 5.65312 83.9964 5.84245C84.0847 6.02863 84.1289 6.24479 84.1289 6.49092V6.59032C84.1289 6.62188 84.1179 6.6487 84.0958 6.67079C84.0737 6.69288 84.0453 6.70392 84.0106 6.70392H82.4391C82.4391 6.70392 82.4391 6.70866 82.4391 6.71812C82.4391 6.72759 82.4391 6.73548 82.4391 6.74179C82.4422 6.85224 82.4628 6.95479 82.5006 7.04946C82.5416 7.14097 82.6 7.21513 82.6758 7.27193C82.7546 7.32873 82.8477 7.35713 82.955 7.35713C83.0434 7.35713 83.1175 7.34451 83.1775 7.31926C83.2374 7.29086 83.2864 7.25931 83.3242 7.2246C83.3621 7.18988 83.3889 7.16148 83.4047 7.13939C83.4331 7.10153 83.4552 7.07944 83.471 7.07313C83.4899 7.06366 83.5167 7.05893 83.5514 7.05893H83.9585C83.9901 7.05893 84.0153 7.06839 84.0342 7.08733C84.0563 7.10626 84.0658 7.12993 84.0626 7.15833C84.0595 7.20882 84.0327 7.27035 83.9822 7.34293C83.9348 7.41551 83.8654 7.48651 83.7739 7.55593C83.6824 7.62535 83.5672 7.68373 83.4284 7.73107C83.2927 7.77524 83.1365 7.79733 82.9598 7.79733ZM82.4391 6.30632H83.4852V6.29212C83.4852 6.16905 83.4646 6.06176 83.4236 5.97025C83.3826 5.87874 83.3226 5.80616 83.2438 5.75252C83.1649 5.69887 83.0702 5.67205 82.9598 5.67205C82.8493 5.67205 82.7546 5.69887 82.6758 5.75252C82.5969 5.80616 82.5369 5.87874 82.4959 5.97025C82.458 6.06176 82.4391 6.16905 82.4391 6.29212V6.30632ZM85.6916 7.79733C85.3413 7.79733 85.0637 7.69636 84.8585 7.4944C84.6534 7.29244 84.543 7.00528 84.5272 6.63292C84.524 6.60137 84.5225 6.56192 84.5225 6.51459C84.5225 6.4641 84.524 6.42466 84.5272 6.39625C84.5398 6.15959 84.5935 5.95447 84.6881 5.78092C84.786 5.60736 84.9201 5.47482 85.0905 5.38331C85.2609 5.28865 85.4613 5.24131 85.6916 5.24131C85.9472 5.24131 86.1618 5.29496 86.3354 5.40225C86.5089 5.50638 86.6399 5.65312 86.7282 5.84245C86.8166 6.02863 86.8608 6.24479 86.8608 6.49092V6.59032C86.8608 6.62188 86.8497 6.6487 86.8276 6.67079C86.8055 6.69288 86.7771 6.70392 86.7424 6.70392H85.1709C85.1709 6.70392 85.1709 6.70866 85.1709 6.71812C85.1709 6.72759 85.1709 6.73548 85.1709 6.74179C85.1741 6.85224 85.1946 6.95479 85.2325 7.04946C85.2735 7.14097 85.3319 7.21513 85.4076 7.27193C85.4865 7.32873 85.5796 7.35713 85.6869 7.35713C85.7752 7.35713 85.8494 7.34451 85.9093 7.31926C85.9693 7.29086 86.0182 7.25931 86.0561 7.2246C86.094 7.18988 86.1208 7.16148 86.1366 7.13939C86.165 7.10153 86.187 7.07944 86.2028 7.07313C86.2218 7.06366 86.2486 7.05893 86.2833 7.05893H86.6904C86.7219 7.05893 86.7472 7.06839 86.7661 7.08733C86.7882 7.10626 86.7976 7.12993 86.7945 7.15833C86.7913 7.20882 86.7645 7.27035 86.714 7.34293C86.6667 7.41551 86.5973 7.48651 86.5058 7.55593C86.4142 7.62535 86.2991 7.68373 86.1602 7.73107C86.0245 7.77524 85.8683 7.79733 85.6916 7.79733ZM85.1709 6.30632H86.217V6.29212C86.217 6.16905 86.1965 6.06176 86.1555 5.97025C86.1145 5.87874 86.0545 5.80616 85.9756 5.75252C85.8967 5.69887 85.8021 5.67205 85.6916 5.67205C85.5812 5.67205 85.4865 5.69887 85.4076 5.75252C85.3287 5.80616 85.2688 5.87874 85.2277 5.97025C85.1899 6.06176 85.1709 6.16905 85.1709 6.29212V6.30632ZM87.2431 5.44485C87.2147 5.44485 87.1926 5.43538 87.1769 5.41645C87.1611 5.39751 87.1548 5.37227 87.1579 5.34071L87.2857 4.54077C87.292 4.49975 87.3062 4.46504 87.3283 4.43664C87.3536 4.40508 87.3899 4.3893 87.4372 4.3893H87.8727C87.8979 4.3893 87.9184 4.39877 87.9342 4.4177C87.95 4.43348 87.9579 4.45242 87.9579 4.4745C87.9579 4.49659 87.9531 4.51868 87.9437 4.54077L87.6407 5.32178C87.6281 5.35333 87.6092 5.38174 87.5839 5.40698C87.5618 5.43222 87.5287 5.44485 87.4845 5.44485H87.2431ZM89.1739 7.79733C88.9846 7.79733 88.8221 7.77524 88.6864 7.73107C88.5539 7.68689 88.445 7.63167 88.3598 7.5654C88.2746 7.49913 88.2115 7.43286 88.1705 7.3666C88.1294 7.30033 88.1073 7.24511 88.1042 7.20093C88.101 7.16622 88.1105 7.13939 88.1326 7.12046C88.1578 7.09837 88.1847 7.08733 88.2131 7.08733H88.587C88.5996 7.08733 88.6107 7.08891 88.6201 7.09206C88.6296 7.09522 88.6422 7.10468 88.658 7.12046C88.699 7.15517 88.7416 7.19146 88.7858 7.22933C88.8331 7.2672 88.8884 7.30033 88.9515 7.32873C89.0146 7.35397 89.0935 7.3666 89.1881 7.3666C89.3112 7.3666 89.4138 7.34293 89.4958 7.2956C89.581 7.24511 89.6236 7.17411 89.6236 7.08259C89.6236 7.01633 89.6047 6.96268 89.5668 6.92166C89.5321 6.88064 89.4658 6.84435 89.368 6.81279C89.2702 6.77808 89.1313 6.74179 88.9515 6.70392C88.7748 6.6629 88.628 6.61083 88.5113 6.54772C88.3945 6.48461 88.3077 6.40572 88.2509 6.31105C88.1941 6.21639 88.1657 6.10594 88.1657 5.97972C88.1657 5.85665 88.202 5.73989 88.2746 5.62945C88.3503 5.51585 88.4608 5.42276 88.6059 5.35018C88.7542 5.2776 88.9373 5.24131 89.155 5.24131C89.3254 5.24131 89.4737 5.2634 89.5999 5.30758C89.7262 5.3486 89.8303 5.40067 89.9123 5.46378C89.9975 5.52689 90.0622 5.59158 90.1064 5.65785C90.1506 5.72096 90.1743 5.77618 90.1774 5.82352C90.1806 5.85823 90.1711 5.88663 90.149 5.90872C90.1269 5.92765 90.1017 5.93712 90.0733 5.93712H89.723C89.7072 5.93712 89.693 5.93396 89.6804 5.92765C89.6678 5.92134 89.6552 5.91345 89.6425 5.90398C89.6078 5.87243 89.57 5.83929 89.5289 5.80458C89.4879 5.76987 89.4374 5.73989 89.3775 5.71465C89.3207 5.68625 89.2449 5.67205 89.1503 5.67205C89.0304 5.67205 88.9388 5.69887 88.8757 5.75252C88.8126 5.80301 88.7811 5.86769 88.7811 5.94658C88.7811 6.00023 88.7953 6.04756 88.8237 6.08859C88.8552 6.12645 88.9168 6.16274 89.0083 6.19745C89.0998 6.23216 89.2386 6.26845 89.4248 6.30632C89.6362 6.34419 89.8035 6.40099 89.9265 6.47672C90.0528 6.5493 90.1411 6.6345 90.1916 6.73232C90.2453 6.82699 90.2721 6.9327 90.2721 7.04946C90.2721 7.19146 90.2295 7.31926 90.1443 7.43286C90.0622 7.54646 89.9392 7.6364 89.7751 7.70267C89.6141 7.76578 89.4138 7.79733 89.1739 7.79733Z" fill="white"/>
<path d="M90.7852 6.35362L217.9 5.76444C218.224 5.76294 218.487 6.02524 218.487 6.34932C218.487 6.67339 218.224 6.93569 217.9 6.93421L90.7852 6.35362Z" fill="#0081FF"/>
<path d="M62.3699 28.2041C62.1999 28.2041 62.0609 28.15 61.9527 28.0419C61.8445 27.9337 61.7904 27.7946 61.7904 27.6246V12.5588C61.7904 12.3888 61.8445 12.2497 61.9527 12.1416C62.0609 12.0334 62.1999 11.9793 62.3699 11.9793H73.1941C73.3641 11.9793 73.5032 12.0334 73.6114 12.1416C73.7195 12.2497 73.7736 12.3888 73.7736 12.5588V14.7375C73.7736 14.9075 73.7195 15.0466 73.6114 15.1547C73.5032 15.2629 73.3641 15.317 73.1941 15.317H65.8003V18.4461H72.6842C72.8542 18.4461 72.9933 18.5079 73.1014 18.6315C73.2096 18.7397 73.2637 18.8787 73.2637 19.0487V21.0652C73.2637 21.2197 73.2096 21.3588 73.1014 21.4824C72.9933 21.5906 72.8542 21.6447 72.6842 21.6447H65.8003V24.8664H73.3796C73.5495 24.8664 73.6886 24.9205 73.7968 25.0287C73.9049 25.1368 73.959 25.2759 73.959 25.4459V27.6246C73.959 27.7946 73.9049 27.9337 73.7968 28.0419C73.6886 28.15 73.5495 28.2041 73.3796 28.2041H62.3699ZM76.7134 22.9195C76.5435 22.9195 76.4044 22.8654 76.2962 22.7572C76.1881 22.649 76.134 22.51 76.134 22.34V20.1613C76.134 19.9913 76.1881 19.8522 76.2962 19.744C76.4044 19.6359 76.5435 19.5818 76.7134 19.5818H83.9682C84.1382 19.5818 84.2773 19.6359 84.3854 19.744C84.4936 19.8522 84.5477 19.9913 84.5477 20.1613V22.34C84.5477 22.51 84.4936 22.649 84.3854 22.7572C84.2773 22.8654 84.1382 22.9195 83.9682 22.9195H76.7134ZM93.327 28.4359C91.7818 28.4359 90.4992 28.2196 89.4794 27.7869C88.4596 27.3388 87.6869 26.7593 87.1616 26.0485C86.6362 25.3377 86.3581 24.5806 86.3272 23.7771C86.3272 23.6534 86.3735 23.5453 86.4662 23.4526C86.5744 23.3444 86.698 23.2903 86.8371 23.2903H89.7575C89.9739 23.2903 90.1361 23.3289 90.2443 23.4062C90.3679 23.4835 90.4761 23.5839 90.5688 23.7075C90.6924 23.9393 90.8624 24.1634 91.0787 24.3797C91.3105 24.596 91.6041 24.7737 91.9595 24.9128C92.3303 25.0364 92.7862 25.0982 93.327 25.0982C94.2232 25.0982 94.8954 24.9591 95.3435 24.681C95.8071 24.4029 96.0388 24.0243 96.0388 23.5453C96.0388 23.2053 95.9152 22.9272 95.668 22.7109C95.4208 22.4791 95.019 22.2782 94.4627 22.1082C93.9219 21.9228 93.1956 21.7374 92.284 21.5519C91.1096 21.3047 90.1052 20.9879 89.2708 20.6016C88.4518 20.1999 87.826 19.6822 87.3934 19.0487C86.9607 18.3997 86.7444 17.5962 86.7444 16.6382C86.7444 15.6956 87.007 14.8534 87.5324 14.1117C88.0732 13.37 88.8227 12.7906 89.7807 12.3734C90.7387 11.9562 91.8745 11.7475 93.1879 11.7475C94.2541 11.7475 95.189 11.8866 95.9925 12.1648C96.8114 12.4429 97.4991 12.8137 98.0553 13.2773C98.6116 13.7409 99.0288 14.2353 99.307 14.7607C99.6006 15.2706 99.7551 15.7728 99.7705 16.2673C99.7705 16.3909 99.7242 16.5068 99.6315 16.615C99.5388 16.7077 99.4229 16.754 99.2838 16.754H96.2243C96.0543 16.754 95.9075 16.7231 95.7839 16.6613C95.6603 16.5995 95.5521 16.4991 95.4594 16.36C95.3667 16.0201 95.1194 15.7265 94.7177 15.4792C94.3314 15.2166 93.8215 15.0852 93.1879 15.0852C92.508 15.0852 91.9749 15.2088 91.5886 15.4561C91.2178 15.6878 91.0323 16.051 91.0323 16.5454C91.0323 16.8545 91.1328 17.1249 91.3337 17.3567C91.55 17.5885 91.8977 17.7893 92.3767 17.9593C92.8711 18.1293 93.5433 18.307 94.3932 18.4924C95.7993 18.7551 96.9351 19.0873 97.8004 19.4891C98.6657 19.8754 99.2992 20.3853 99.701 21.0188C100.103 21.6369 100.304 22.4173 100.304 23.3598C100.304 24.4106 100.002 25.3223 99.3997 26.0949C98.8125 26.852 97.9935 27.4315 96.9428 27.8332C95.892 28.235 94.6868 28.4359 93.327 28.4359ZM109.415 28.4359C108.025 28.4359 106.804 28.2118 105.753 27.7637C104.718 27.3001 103.914 26.5971 103.343 25.6545C102.771 24.6965 102.485 23.4835 102.485 22.0155V12.5588C102.485 12.3888 102.539 12.2497 102.647 12.1416C102.755 12.0334 102.894 11.9793 103.064 11.9793H106.054C106.224 11.9793 106.363 12.0334 106.472 12.1416C106.58 12.2497 106.634 12.3888 106.634 12.5588V21.9923C106.634 22.9967 106.873 23.7539 107.352 24.2638C107.847 24.7583 108.534 25.0055 109.415 25.0055C110.281 25.0055 110.953 24.7583 111.432 24.2638C111.926 23.7539 112.173 22.9967 112.173 21.9923V12.5588C112.173 12.3888 112.228 12.2497 112.336 12.1416C112.459 12.0334 112.598 11.9793 112.753 11.9793H115.766C115.921 11.9793 116.052 12.0334 116.16 12.1416C116.284 12.2497 116.346 12.3888 116.346 12.5588V22.0155C116.346 23.4835 116.06 24.6965 115.488 25.6545C114.916 26.5971 114.113 27.3001 113.077 27.7637C112.042 28.2118 110.821 28.4359 109.415 28.4359ZM119.999 28.2041C119.844 28.2041 119.705 28.15 119.581 28.0419C119.473 27.9337 119.419 27.7946 119.419 27.6246V12.5588C119.419 12.3888 119.473 12.2497 119.581 12.1416C119.705 12.0334 119.844 11.9793 119.999 11.9793H122.502C122.749 11.9793 122.935 12.0489 123.058 12.1879C123.197 12.3116 123.282 12.412 123.313 12.4893L127.392 19.8136L131.472 12.4893C131.518 12.412 131.595 12.3116 131.704 12.1879C131.827 12.0489 132.02 11.9793 132.283 11.9793H134.763C134.933 11.9793 135.072 12.0334 135.18 12.1416C135.304 12.2497 135.366 12.3888 135.366 12.5588V27.6246C135.366 27.7946 135.304 27.9337 135.18 28.0419C135.072 28.15 134.933 28.2041 134.763 28.2041H132.005C131.835 28.2041 131.688 28.15 131.565 28.0419C131.456 27.9337 131.402 27.7946 131.402 27.6246V18.9328L128.783 23.7771C128.721 23.9161 128.629 24.0397 128.505 24.1479C128.381 24.2561 128.211 24.3102 127.995 24.3102H126.79C126.574 24.3102 126.404 24.2561 126.28 24.1479C126.156 24.0397 126.056 23.9161 125.979 23.7771L123.359 18.9328V27.6246C123.359 27.7946 123.305 27.9337 123.197 28.0419C123.089 28.15 122.95 28.2041 122.78 28.2041H119.999ZM139.17 28.2041C139.016 28.2041 138.877 28.15 138.753 28.0419C138.645 27.9337 138.591 27.7946 138.591 27.6246V12.5588C138.591 12.3888 138.645 12.2497 138.753 12.1416C138.877 12.0334 139.016 11.9793 139.17 11.9793H141.674C141.921 11.9793 142.106 12.0489 142.23 12.1879C142.369 12.3116 142.454 12.412 142.485 12.4893L146.564 19.8136L150.644 12.4893C150.69 12.412 150.767 12.3116 150.875 12.1879C150.999 12.0489 151.192 11.9793 151.455 11.9793H153.935C154.105 11.9793 154.244 12.0334 154.352 12.1416C154.476 12.2497 154.538 12.3888 154.538 12.5588V27.6246C154.538 27.7946 154.476 27.9337 154.352 28.0419C154.244 28.15 154.105 28.2041 153.935 28.2041H151.177C151.007 28.2041 150.86 28.15 150.736 28.0419C150.628 27.9337 150.574 27.7946 150.574 27.6246V18.9328L147.955 23.7771C147.893 23.9161 147.801 24.0397 147.677 24.1479C147.553 24.2561 147.383 24.3102 147.167 24.3102H145.962C145.745 24.3102 145.575 24.2561 145.452 24.1479C145.328 24.0397 145.228 23.9161 145.15 23.7771L142.531 18.9328V27.6246C142.531 27.7946 142.477 27.9337 142.369 28.0419C142.261 28.15 142.122 28.2041 141.952 28.2041H139.17ZM158.342 28.2041C158.172 28.2041 158.033 28.15 157.925 28.0419C157.817 27.9337 157.763 27.7946 157.763 27.6246V12.5588C157.763 12.3888 157.817 12.2497 157.925 12.1416C158.033 12.0334 158.172 11.9793 158.342 11.9793H161.448C161.618 11.9793 161.757 12.0334 161.865 12.1416C161.974 12.2497 162.028 12.3888 162.028 12.5588V27.6246C162.028 27.7946 161.974 27.9337 161.865 28.0419C161.757 28.15 161.618 28.2041 161.448 28.2041H158.342ZM169.427 28.2041C169.257 28.2041 169.118 28.15 169.009 28.0419C168.901 27.9337 168.847 27.7946 168.847 27.6246V15.6183H164.721C164.551 15.6183 164.412 15.5642 164.304 15.4561C164.196 15.3324 164.142 15.1934 164.142 15.0389V12.5588C164.142 12.3888 164.196 12.2497 164.304 12.1416C164.412 12.0334 164.551 11.9793 164.721 11.9793H177.191C177.361 11.9793 177.5 12.0334 177.609 12.1416C177.717 12.2497 177.771 12.3888 177.771 12.5588V15.0389C177.771 15.1934 177.717 15.3324 177.609 15.4561C177.5 15.5642 177.361 15.6183 177.191 15.6183H173.066V27.6246C173.066 27.7946 173.011 27.9337 172.903 28.0419C172.795 28.15 172.656 28.2041 172.486 28.2041H169.427ZM189.133 28.2041C188.963 28.2041 188.817 28.15 188.693 28.0419C188.585 27.9337 188.531 27.7946 188.531 27.6246V25.979C188.531 25.8708 188.562 25.7086 188.623 25.4922C188.685 25.2605 188.847 25.0441 189.11 24.8433L191.521 22.4791C192.757 21.5365 193.769 20.7407 194.557 20.0917C195.361 19.4273 195.955 18.8401 196.342 18.3302C196.728 17.8202 196.921 17.3412 196.921 16.8931C196.921 16.3677 196.782 15.9351 196.504 15.5951C196.241 15.2397 195.778 15.062 195.113 15.062C194.665 15.062 194.287 15.1625 193.978 15.3634C193.684 15.5488 193.46 15.796 193.305 16.1051C193.151 16.4141 193.043 16.7309 192.981 17.0554C192.919 17.2562 192.811 17.3953 192.656 17.4726C192.517 17.5498 192.363 17.5885 192.193 17.5885H189.296C189.157 17.5885 189.041 17.5421 188.948 17.4494C188.855 17.3567 188.809 17.2408 188.809 17.1017C188.824 16.36 188.979 15.6647 189.272 15.0157C189.581 14.3667 190.006 13.795 190.547 13.3005C191.104 12.7906 191.76 12.3965 192.517 12.1184C193.29 11.8403 194.155 11.7012 195.113 11.7012C196.427 11.7012 197.539 11.9098 198.451 12.327C199.378 12.7442 200.081 13.3314 200.56 14.0885C201.039 14.8303 201.279 15.7033 201.279 16.7077C201.279 17.4648 201.109 18.1756 200.769 18.8401C200.444 19.4891 199.973 20.1149 199.355 20.7175C198.752 21.3047 198.034 21.9151 197.199 22.5486L195.067 24.7042H201.024C201.194 24.7042 201.333 24.7583 201.441 24.8664C201.565 24.9746 201.626 25.1137 201.626 25.2836V27.6246C201.626 27.7946 201.565 27.9337 201.441 28.0419C201.333 28.15 201.194 28.2041 201.024 28.2041H189.133ZM210.304 28.4359C208.944 28.4359 207.747 28.1886 206.712 27.6942C205.676 27.1997 204.865 26.5198 204.278 25.6545C203.706 24.7737 203.42 23.7693 203.42 22.6413C203.42 22.1623 203.49 21.691 203.629 21.2274C203.783 20.7484 203.969 20.3003 204.185 19.8831C204.401 19.4505 204.618 19.0719 204.834 18.7474C205.05 18.4074 205.228 18.137 205.367 17.9361L209.447 12.4429C209.524 12.3656 209.624 12.2729 209.748 12.1648C209.871 12.0411 210.049 11.9793 210.281 11.9793H213.364C213.503 11.9793 213.619 12.0334 213.711 12.1416C213.804 12.2343 213.85 12.3502 213.85 12.4893C213.85 12.5511 213.843 12.6129 213.827 12.6747C213.812 12.721 213.789 12.7597 213.758 12.7906L210.629 17.0554C210.721 17.0245 210.83 17.009 210.953 17.009C211.092 16.9936 211.216 16.9858 211.324 16.9858C212.019 17.0167 212.707 17.1713 213.387 17.4494C214.067 17.7275 214.685 18.1061 215.241 18.5851C215.797 19.0641 216.238 19.6436 216.562 20.3235C216.902 20.9879 217.072 21.7374 217.072 22.5718C217.072 23.638 216.794 24.6192 216.238 25.5154C215.682 26.3962 214.893 27.107 213.874 27.6478C212.869 28.1732 211.679 28.4359 210.304 28.4359ZM210.281 25.0982C210.729 25.0982 211.146 25.0055 211.533 24.8201C211.919 24.6192 212.228 24.3411 212.46 23.9857C212.707 23.6148 212.831 23.159 212.831 22.6181C212.831 22.0773 212.715 21.6292 212.483 21.2738C212.251 20.903 211.942 20.6248 211.556 20.4394C211.169 20.254 210.745 20.1613 210.281 20.1613C209.817 20.1613 209.385 20.254 208.983 20.4394C208.597 20.6248 208.288 20.903 208.056 21.2738C207.824 21.6292 207.708 22.0773 207.708 22.6181C207.708 23.159 207.824 23.6148 208.056 23.9857C208.303 24.3411 208.62 24.6192 209.006 24.8201C209.392 25.0055 209.817 25.0982 210.281 25.0982Z" fill="white"/>
<path d="M186.863 17.1624C186.863 17.3484 186.806 17.5125 186.691 17.6548L186.341 18.0651C186.223 18.2037 186.081 18.273 185.917 18.273C185.749 18.273 185.609 18.2037 185.497 18.0651L184.125 16.4621V20.3137C184.125 20.5034 184.067 20.6575 183.95 20.776C183.834 20.8946 183.693 20.9538 183.528 20.9538H182.931C182.766 20.9538 182.625 20.8946 182.509 20.776C182.392 20.6575 182.334 20.5034 182.334 20.3137V16.4621L180.962 18.0651C180.851 18.2037 180.711 18.273 180.543 18.273C180.375 18.273 180.235 18.2037 180.123 18.0651L179.773 17.6548C179.655 17.5162 179.596 17.352 179.596 17.1624C179.596 16.9691 179.655 16.8031 179.773 16.6645L182.81 13.1028C182.919 12.9679 183.059 12.9004 183.23 12.9004C183.398 12.9004 183.539 12.9679 183.654 13.1028L186.691 16.6645C186.806 16.8068 186.863 16.9727 186.863 17.1624Z" fill="url(#paint2_linear_43_3667)"/>
<path d="M135.929 33.4492C135.251 33.4493 134.683 33.578 134.19 33.832C133.698 34.0861 133.285 34.4637 132.916 34.9531C132.869 35.0156 132.881 35.1041 132.94 35.1533L133.376 35.5117C133.444 35.568 133.545 35.5507 133.593 35.4795C134.118 34.6924 134.921 34.3018 135.929 34.3018C137.52 34.3018 138.781 35.4952 138.781 37.1846C138.781 38.8755 137.593 40.0801 135.929 40.0801C134.504 40.0799 133.411 39.2378 133.371 37.9092H135.988C136.069 37.9092 136.135 37.8434 136.135 37.7627V37.2031C136.135 37.1224 136.069 37.0566 135.988 37.0566H132.608C132.528 37.0566 132.462 37.1224 132.462 37.2031V40.7334C132.462 40.8141 132.528 40.8799 132.608 40.8799H133.153C133.229 40.8798 133.292 40.8222 133.299 40.7471L133.373 39.9102C133.834 40.4364 134.59 40.9316 135.929 40.9316C138.062 40.9316 139.621 39.47 139.717 37.3877L139.722 37.1846C139.721 35.0082 138.13 33.4492 135.929 33.4492Z" fill="white" stroke="white" stroke-width="0.150801"/>
<path d="M108.407 33.4854C108.484 33.4854 108.546 33.5468 108.546 33.623V34.124C108.546 34.2003 108.484 34.2616 108.407 34.2617H103.89C103.888 34.2617 103.887 34.2633 103.887 34.2646V36.3281C103.887 36.3295 103.888 36.331 103.89 36.3311H107.865C107.942 36.3311 108.004 36.3924 108.004 36.4688V36.9697C108.004 37.0461 107.942 37.1074 107.865 37.1074H103.89C103.888 37.1074 103.887 37.109 103.887 37.1104V40.0947C103.887 40.0961 103.888 40.0976 103.89 40.0977H108.52C108.596 40.0977 108.658 40.1598 108.658 40.2363V40.7363C108.658 40.8127 108.596 40.875 108.52 40.875H103.1C103.023 40.8748 102.962 40.8126 102.962 40.7363V33.623C102.962 33.5468 103.023 33.4856 103.1 33.4854H108.407Z" fill="white" stroke="white" stroke-width="0.135721"/>
<path d="M124.292 40.8483C124.292 40.907 124.244 40.9545 124.186 40.9545H123.374C123.315 40.9545 123.268 40.907 123.268 40.8483V33.4528C123.268 33.3942 123.315 33.3467 123.374 33.3467H124.186C124.244 33.3467 124.292 33.3942 124.292 33.4528V40.8483Z" fill="white"/>
<path d="M94.72 38.8491C94.72 39.4865 94.4851 39.9984 94.0152 40.3849C93.5385 40.7646 92.9597 40.9545 92.2787 40.9545C91.6727 40.9545 91.1381 40.7782 90.675 40.4256C90.2432 40.0968 89.9357 39.656 89.7526 39.1031C89.7299 39.0343 89.7658 38.9606 89.8329 38.9333L90.4672 38.6749C90.5453 38.6431 90.6335 38.6865 90.6614 38.7661C90.7167 38.9243 90.786 39.0706 90.8691 39.2051C90.9781 39.3814 91.104 39.534 91.247 39.6628C91.3969 39.7849 91.5603 39.8832 91.7374 39.9578C91.9144 40.0256 92.1017 40.0595 92.2992 40.0595C92.7282 40.0595 93.0789 39.951 93.3513 39.734C93.6237 39.5102 93.7599 39.2153 93.7599 38.8491C93.7599 38.544 93.6475 38.2829 93.4228 38.066C93.2117 37.8558 92.8167 37.6524 92.2379 37.4557C91.6522 37.2455 91.2879 37.1031 91.1449 37.0285C90.3686 36.6353 89.9804 36.0555 89.9804 35.2893C89.9804 34.7537 90.1949 34.296 90.6239 33.9162C91.0598 33.5365 91.5943 33.3467 92.2277 33.3467C92.7861 33.3467 93.2696 33.4891 93.6781 33.7739C94.0463 34.0244 94.3039 34.3327 94.4509 34.6988C94.4784 34.7672 94.4429 34.8433 94.3749 34.8716L93.7616 35.1273C93.6842 35.1596 93.5965 35.1173 93.5625 35.0406C93.4712 34.8345 93.3259 34.6597 93.1265 34.5163C92.8882 34.3333 92.5954 34.2417 92.2481 34.2417C91.8804 34.2417 91.5705 34.3434 91.3185 34.5468C91.0666 34.7367 90.9406 34.9842 90.9406 35.2893C90.9406 35.5402 91.0393 35.7572 91.2368 35.9403C91.4547 36.1233 91.928 36.3403 92.6567 36.5912C93.3989 36.8421 93.9267 37.1506 94.2399 37.5167C94.56 37.8761 94.72 38.3202 94.72 38.8491Z" fill="white"/>
<path d="M78.3141 34.5474C78.3006 34.5474 78.2884 34.5557 78.2836 34.5683L77.0701 37.7392C77.0257 37.8551 77.1113 37.9794 77.2353 37.9794H79.3929C79.5169 37.9794 79.6024 37.8551 79.5581 37.7392L78.3446 34.5683C78.3397 34.5557 78.3276 34.5474 78.3141 34.5474ZM75.8877 40.8406C75.8616 40.9092 75.7958 40.9545 75.7224 40.9545H74.9602C74.8351 40.9545 74.7495 40.8283 74.7958 40.7121L77.6859 33.4581C77.7127 33.3908 77.7778 33.3467 77.8503 33.3467H78.7779C78.8503 33.3467 78.9154 33.3908 78.9422 33.4581L81.8324 40.7121C81.8787 40.8283 81.7931 40.9545 81.668 40.9545H80.9064C80.8327 40.9545 80.7667 40.9088 80.7408 40.8398L80.0523 39.0079C80.0264 38.9389 79.9604 38.8932 79.8867 38.8932H76.752C76.6786 38.8932 76.6129 38.9385 76.5867 39.0071L75.8877 40.8406Z" fill="white"/>
<path d="M73.155 34.2884C73.2332 34.2884 73.2966 34.3518 73.2966 34.4299V36.8436C73.2966 36.9217 73.2332 36.9851 73.155 36.9851H71.6371C71.2185 36.9851 70.8635 36.8567 70.5719 36.5999C70.2804 36.3359 70.1347 36.0113 70.1347 35.6261C70.1347 35.2693 70.2729 34.959 70.5495 34.695C70.8186 34.4239 71.1587 34.2884 71.5699 34.2884H73.155ZM73.2966 40.8673C73.2966 40.9454 73.3599 41.0088 73.4381 41.0088H74.1866C74.2648 41.0088 74.3281 40.9454 74.3281 40.8673V33.4882C74.3281 33.41 74.2648 33.3467 74.1866 33.3467H71.5923C70.8971 33.3467 70.3066 33.5678 69.8207 34.0102C69.3274 34.4453 69.0807 34.984 69.0807 35.6261C69.0807 36.154 69.2638 36.6248 69.6301 37.0386C69.9859 37.4419 70.4373 37.7013 70.9842 37.8169C70.9931 37.8188 71.0009 37.8239 71.0061 37.8313C71.0147 37.8437 71.0145 37.8601 71.0057 37.8723L68.7729 40.9575C68.7689 40.963 68.7667 40.9697 68.7667 40.9765C68.7667 40.9943 68.7812 41.0088 68.7991 41.0088H69.915C69.9613 41.0088 70.0047 40.9862 70.0311 40.9482L72.1107 37.966C72.1371 37.9281 72.1805 37.9054 72.2268 37.9054H73.155C73.2332 37.9054 73.2966 37.9688 73.2966 38.047V40.8673Z" fill="white"/>
<path d="M83.7217 33.4902C83.7401 33.4902 83.7582 33.4951 83.7744 33.5029L83.8164 33.5352L86.4316 36.7549C86.4962 36.8343 86.4392 36.9531 86.3369 36.9531H85.5586C85.5223 36.953 85.4878 36.9372 85.4648 36.9092L83.9062 34.9971V36.832C83.9062 36.899 83.852 36.9529 83.7852 36.9531H83.0938C83.0268 36.9529 82.9727 36.899 82.9727 36.832V33.6123C82.9727 33.5453 83.0268 33.4904 83.0938 33.4902H83.7217ZM88.9199 33.4551C88.9869 33.4551 89.0418 33.5092 89.042 33.5762V36.832C89.042 36.8991 88.987 36.9531 88.9199 36.9531H88.2295C88.1624 36.9531 88.1084 36.8991 88.1084 36.832V33.5762C88.1086 33.5092 88.1625 33.4551 88.2295 33.4551H88.9199Z" fill="white" stroke="white" stroke-width="0.136901"/>
<path d="M83.4639 37.4238C83.5307 37.4241 83.5848 37.4781 83.585 37.5449V40.7246C83.585 40.7916 83.5308 40.8464 83.4639 40.8467H82.7227C82.6557 40.8465 82.6016 40.7916 82.6016 40.7246V37.5449C82.6017 37.4781 82.6558 37.424 82.7227 37.4238H83.4639ZM86.2666 37.4238C86.3019 37.4238 86.3353 37.4391 86.3584 37.4658L88.0576 39.4316V37.501C88.0576 37.4585 88.0923 37.4238 88.1348 37.4238H88.9287C88.9955 37.4241 89.0496 37.4781 89.0498 37.5449V40.7246C89.0498 40.7916 88.9956 40.8464 88.9287 40.8467H88.2588C88.2241 40.8467 88.191 40.8315 88.168 40.8057L85.3457 37.626C85.2761 37.5476 85.3318 37.4239 85.4365 37.4238H86.2666Z" fill="white" stroke="white" stroke-width="0.136901"/>
<path d="M110.603 33.4902C110.621 33.4902 110.639 33.4951 110.655 33.5029L110.697 33.5352L113.312 36.7549C113.377 36.8343 113.32 36.9531 113.218 36.9531H112.439C112.403 36.953 112.369 36.9372 112.346 36.9092L110.787 34.9971V36.832C110.787 36.899 110.733 36.9529 110.666 36.9531H109.975C109.908 36.9529 109.854 36.899 109.854 36.832V33.6123C109.854 33.5453 109.908 33.4904 109.975 33.4902H110.603ZM115.801 33.4551C115.868 33.4551 115.923 33.5092 115.923 33.5762V36.832C115.923 36.8991 115.868 36.9531 115.801 36.9531H115.11C115.043 36.9531 114.989 36.8991 114.989 36.832V33.5762C114.989 33.5092 115.043 33.4551 115.11 33.4551H115.801Z" fill="white" stroke="white" stroke-width="0.136901"/>
<path d="M110.345 37.4238C110.412 37.4241 110.466 37.4781 110.466 37.5449V40.7246C110.466 40.7916 110.412 40.8464 110.345 40.8467H109.604C109.537 40.8465 109.482 40.7916 109.482 40.7246V37.5449C109.483 37.4781 109.537 37.424 109.604 37.4238H110.345ZM113.147 37.4238C113.183 37.4238 113.216 37.4391 113.239 37.4658L114.938 39.4316V37.501C114.938 37.4585 114.973 37.4238 115.016 37.4238H115.81C115.876 37.4241 115.93 37.4781 115.931 37.5449V40.7246C115.931 40.7916 115.876 40.8464 115.81 40.8467H115.14C115.105 40.8467 115.072 40.8315 115.049 40.8057L112.227 37.626C112.157 37.5476 112.213 37.4239 112.317 37.4238H113.147Z" fill="white" stroke="white" stroke-width="0.136901"/>
<path d="M126.173 33.4902C126.191 33.4902 126.209 33.4951 126.226 33.5029L126.268 33.5352L128.883 36.7549C128.947 36.8343 128.89 36.9531 128.788 36.9531H128.01C127.974 36.953 127.939 36.9372 127.916 36.9092L126.357 34.9971V36.832C126.357 36.899 126.303 36.9529 126.236 36.9531H125.545C125.478 36.9529 125.424 36.899 125.424 36.832V33.6123C125.424 33.5453 125.478 33.4904 125.545 33.4902H126.173ZM131.371 33.4551C131.438 33.4551 131.493 33.5092 131.493 33.5762V36.832C131.493 36.8991 131.438 36.9531 131.371 36.9531H130.681C130.614 36.9531 130.56 36.8991 130.56 36.832V33.5762C130.56 33.5092 130.614 33.4551 130.681 33.4551H131.371Z" fill="white" stroke="white" stroke-width="0.136901"/>
<path d="M125.915 37.4238C125.982 37.4241 126.036 37.4781 126.036 37.5449V40.7246C126.036 40.7916 125.982 40.8464 125.915 40.8467H125.174C125.107 40.8465 125.053 40.7916 125.053 40.7246V37.5449C125.053 37.4781 125.107 37.424 125.174 37.4238H125.915ZM128.718 37.4238C128.753 37.4238 128.787 37.4391 128.81 37.4658L130.509 39.4316V37.501C130.509 37.4585 130.544 37.4238 130.586 37.4238H131.38C131.447 37.4241 131.501 37.4781 131.501 37.5449V40.7246C131.501 40.7916 131.447 40.8464 131.38 40.8467H130.71C130.675 40.8467 130.642 40.8315 130.619 40.8057L127.797 37.626C127.727 37.5476 127.783 37.4239 127.888 37.4238H128.718Z" fill="white" stroke="white" stroke-width="0.136901"/>
<path d="M65.7966 34.5838C65.7477 34.5838 65.7081 34.6234 65.7081 34.6723V40.866C65.7081 40.9149 65.6685 40.9545 65.6196 40.9545H64.6398C64.591 40.9545 64.5514 40.9149 64.5514 40.866V34.6723C64.5514 34.6234 64.5118 34.5838 64.4629 34.5838H61.6256C61.5767 34.5838 61.5371 34.5442 61.5371 34.4953V33.4351C61.5371 33.3863 61.5767 33.3467 61.6256 33.3467H68.8637C68.9126 33.3467 68.9522 33.3863 68.9522 33.4351V34.4953C68.9522 34.5442 68.9126 34.5838 68.8637 34.5838H65.7966Z" fill="white"/>
<path d="M98.7775 40.904C98.0152 40.904 97.3555 40.7466 96.7985 40.4318C96.2414 40.11 95.8126 39.6657 95.5121 39.0991C95.2189 38.5254 95.0723 37.8643 95.0723 37.1158C95.0723 36.3603 95.2189 35.6992 95.5121 35.1325C95.8126 34.5589 96.2414 34.1111 96.7985 33.7893C97.3555 33.4675 98.0152 33.3066 98.7775 33.3066C99.6864 33.3066 100.427 33.52 100.998 33.9467C101.516 34.327 101.863 34.848 102.038 35.5096C102.067 35.6177 101.983 35.7202 101.871 35.7202H100.887C100.805 35.7202 100.734 35.6623 100.71 35.5829C100.601 35.2208 100.397 34.9308 100.097 34.7128C99.767 34.4679 99.3236 34.3455 98.7665 34.3455C98.2608 34.3455 97.8246 34.4574 97.4581 34.6813C97.0916 34.8982 96.8058 35.2165 96.6005 35.6362C96.4026 36.049 96.3037 36.5422 96.3037 37.1158C96.3037 37.6894 96.4026 38.1826 96.6005 38.5954C96.8058 39.0011 97.0916 39.3159 97.4581 39.5398C97.8246 39.7637 98.2608 39.8756 98.7665 39.8756C99.3236 39.8756 99.767 39.7567 100.097 39.5188C100.393 39.3055 100.6 39.0105 100.719 38.634C100.744 38.5565 100.814 38.5009 100.895 38.5009H101.882C101.994 38.5009 102.078 38.6035 102.049 38.7115C101.873 39.3731 101.523 39.8941 100.998 40.2744C100.427 40.6941 99.6864 40.904 98.7775 40.904Z" fill="white"/>
<path d="M116.956 40.9545C116.859 40.9545 116.779 40.8753 116.779 40.7776V33.5236C116.779 33.4259 116.859 33.3467 116.956 33.3467H119.005C120.116 33.3467 121.007 33.6973 121.677 34.3986C122.355 35.0999 122.693 36.0172 122.693 37.1506C122.693 38.2911 122.355 39.2119 121.677 39.9132C121.007 40.6074 120.116 40.9545 119.005 40.9545H116.956ZM117.891 34.2817C117.793 34.2817 117.714 34.3609 117.714 34.4586V39.8425C117.714 39.9402 117.793 40.0195 117.891 40.0195H119.005C119.852 40.0195 120.519 39.768 121.007 39.2651C121.494 38.755 121.738 38.0502 121.738 37.1506C121.738 36.2581 121.494 35.5568 121.007 35.0468C120.519 34.5367 119.852 34.2817 119.005 34.2817H117.891Z" fill="white"/>
<path d="M143.243 33.1904V33.9814H147.334V40.2568L143.305 38.2188L143.243 38.1875V39.0537L143.266 39.0664L147.355 41.3105L147.365 41.3164H148.114V33.1904H143.243Z" fill="white" stroke="white" stroke-width="0.0841089"/>
<path d="M160.891 33.041V34.0529H156.993V36.6631H160.509V37.652H156.993V40.2622H160.891V41.2741H155.893V33.041H160.891Z" fill="white"/>
<path d="M149.83 41.2741H148.732V33.041H149.83V36.5711H154.103V33.041H155.201V41.2741H154.103V37.56H149.83V41.2741Z" fill="white"/>
<path d="M209.836 41.0739C209.836 41.1796 209.751 41.2653 209.645 41.2653H208.949C208.844 41.2653 208.758 41.1796 208.758 41.0739V33.2237C208.758 33.1179 208.844 33.0322 208.949 33.0322H209.726C209.794 33.0322 209.857 33.0685 209.892 33.1274L212.743 38.0254C212.751 38.038 212.764 38.0457 212.779 38.0457C212.793 38.0457 212.807 38.038 212.814 38.0254L215.666 33.1274C215.7 33.0685 215.763 33.0322 215.831 33.0322H216.608C216.714 33.0322 216.799 33.1179 216.799 33.2237V41.0739C216.799 41.1796 216.714 41.2653 216.608 41.2653H215.912C215.807 41.2653 215.721 41.1796 215.721 41.0739V36.3784L215.767 35.0286C215.767 35.0122 215.754 34.9985 215.738 34.9985C215.727 34.9985 215.718 35.004 215.713 35.013L213.15 39.4222C213.116 39.4812 213.053 39.5175 212.985 39.5175H212.572C212.504 39.5175 212.441 39.4812 212.407 39.4222L209.845 35.013C209.839 35.004 209.83 34.9985 209.82 34.9985C209.803 34.9985 209.79 35.0122 209.79 35.0286L209.836 36.3784V41.0739Z" fill="white"/>
<path d="M173.429 34.3282C173.415 34.3282 173.403 34.3368 173.398 34.3497L172.157 37.7759C172.112 37.9007 172.205 38.0325 172.337 38.0325H174.521C174.654 38.0325 174.746 37.9007 174.701 37.7759L173.46 34.3497C173.455 34.3368 173.443 34.3282 173.429 34.3282ZM170.952 41.1173C170.924 41.1932 170.852 41.2438 170.772 41.2438H170.013C169.879 41.2438 169.787 41.11 169.834 40.9847L172.786 33.1561C172.814 33.0816 172.886 33.0322 172.965 33.0322H173.893C173.973 33.0322 174.044 33.0816 174.072 33.1561L177.024 40.9847C177.072 41.11 176.979 41.2438 176.845 41.2438H176.087C176.006 41.2438 175.934 41.1928 175.907 41.1165L175.206 39.1461C175.179 39.0698 175.107 39.0188 175.026 39.0188H171.843C171.763 39.0188 171.691 39.0694 171.663 39.1453L170.952 41.1173Z" fill="white"/>
<path d="M186.449 34.3282C186.435 34.3282 186.423 34.3368 186.418 34.3497L185.177 37.7759C185.132 37.9007 185.224 38.0325 185.357 38.0325H187.541C187.673 38.0325 187.766 37.9007 187.721 37.7759L186.48 34.3497C186.475 34.3368 186.463 34.3282 186.449 34.3282ZM183.971 41.1173C183.944 41.1932 183.872 41.2438 183.791 41.2438H183.033C182.899 41.2438 182.806 41.11 182.854 40.9847L185.806 33.1561C185.834 33.0816 185.905 33.0322 185.985 33.0322H186.913C186.992 33.0322 187.064 33.0816 187.092 33.1561L190.044 40.9847C190.091 41.11 189.999 41.2438 189.865 41.2438H189.107C189.026 41.2438 188.954 41.1928 188.927 41.1165L188.226 39.1461C188.199 39.0698 188.126 39.0188 188.045 39.0188H184.863C184.782 39.0188 184.71 39.0694 184.683 39.1453L183.971 41.1173Z" fill="white"/>
<path d="M166.709 37.8699V41.2653H165.664V33.0322H168.435C169.139 33.0322 169.737 33.2669 170.229 33.7363C170.729 34.2057 170.979 34.7773 170.979 35.4511C170.979 36.14 170.729 36.7154 170.229 37.1772C169.745 37.639 169.147 37.8699 168.435 37.8699H166.709ZM165.664 34.0316V36.8649L168.458 36.8706C168.874 36.8706 169.218 36.7305 169.491 36.4504C169.771 36.1703 169.911 35.8372 169.911 35.4511C169.911 35.0725 169.771 34.7432 169.491 34.4631C169.218 34.1754 168.874 34.0316 168.458 34.0316H165.664Z" fill="white"/>
<path d="M165.607 34.4416C165.62 34.3809 165.706 34.3809 165.719 34.4416L165.847 35.0748C165.852 35.0972 165.869 35.1146 165.892 35.1191L166.525 35.2479C166.586 35.2603 166.586 35.3469 166.525 35.3592L165.892 35.488C165.869 35.4925 165.852 35.51 165.847 35.5323L165.719 36.1656C165.706 36.2262 165.62 36.2262 165.607 36.1656L165.479 35.5323C165.474 35.51 165.457 35.4925 165.434 35.488L164.801 35.3592C164.74 35.3469 164.74 35.2603 164.801 35.2479L165.434 35.1191C165.457 35.1146 165.474 35.0972 165.479 35.0748L165.607 34.4416Z" fill="white"/>
<path d="M202.065 33.1288C202.173 33.0986 202.356 33.0617 202.47 33.0483C202.586 33.0349 202.847 33.0281 203.054 33.0349C203.303 33.046 203.533 33.0785 203.743 33.1321C203.916 33.1758 204.165 33.2596 204.297 33.3167C204.428 33.3737 204.644 33.4878 204.776 33.5716C204.908 33.6555 205.108 33.8065 205.225 33.9037C205.342 34.0044 205.525 34.1923 205.639 34.3231C205.749 34.4539 205.908 34.672 205.992 34.8028C206.076 34.937 206.196 35.1651 206.262 35.306C206.325 35.4503 206.378 35.5744 206.378 35.5845C206.378 35.5942 206.136 35.6007 205.316 35.6012C205.25 35.6013 205.189 35.5676 205.154 35.5121L205.108 35.4402C205.052 35.353 204.914 35.1819 204.8 35.0612C204.689 34.937 204.521 34.7827 204.431 34.7123C204.342 34.6452 204.186 34.5479 204.087 34.4942C203.988 34.4405 203.82 34.3667 203.713 34.3298C203.605 34.2929 203.425 34.2459 203.308 34.2292C203.191 34.209 203.012 34.1923 202.904 34.1923C202.796 34.1923 202.592 34.2157 202.446 34.2426C202.302 34.2694 202.08 34.3365 201.954 34.3935C201.826 34.4472 201.637 34.5479 201.535 34.6183C201.43 34.6888 201.277 34.8062 201.193 34.88C201.11 34.9538 200.963 35.1148 200.87 35.239C200.777 35.3597 200.657 35.5409 200.606 35.6415C200.552 35.7388 200.466 35.9334 200.418 36.0709C200.367 36.2085 200.304 36.4433 200.277 36.5909C200.241 36.7889 200.235 36.9667 200.247 37.2787C200.256 37.5638 200.283 37.7785 200.328 37.9496C200.364 38.0872 200.451 38.3287 200.526 38.4864C200.597 38.6441 200.729 38.8688 200.816 38.9896C200.903 39.1104 201.083 39.305 201.214 39.4257C201.349 39.5465 201.571 39.7075 201.709 39.7847C201.846 39.8619 202.068 39.9558 202.2 39.996C202.347 40.0397 202.574 40.0766 202.784 40.0866C202.994 40.1 203.212 40.09 203.338 40.0665C203.455 40.043 203.635 39.996 203.743 39.9591C203.85 39.9222 204.039 39.835 204.162 39.7646C204.285 39.6975 204.473 39.5733 204.581 39.4928C204.689 39.409 204.869 39.2546 204.986 39.1439C205.102 39.0332 205.429 38.6843 205.713 38.3623C205.995 38.0436 206.229 37.7718 206.229 37.755C206.229 37.7421 205.76 37.7354 204.176 37.7469C204.069 37.7477 203.982 37.6617 203.982 37.5554V36.7656C203.982 36.6599 204.068 36.5742 204.174 36.5742H205.92C206.781 36.5742 207.533 36.5785 207.848 36.5942C207.936 36.5986 207.996 36.6689 207.996 36.7563V41.0739C207.996 41.1796 207.91 41.2653 207.804 41.2653H207.422L207.145 41.2653C207.039 41.2653 206.954 41.1796 206.954 41.0739V39.8015C206.96 39.1171 206.957 38.5535 206.948 38.5535C206.939 38.5535 206.63 38.899 206.259 39.3217C205.788 39.8585 205.486 40.1705 205.255 40.3617C205.069 40.516 204.77 40.724 204.566 40.8381C204.312 40.979 204.102 41.0662 203.847 41.14C203.578 41.2172 203.389 41.2474 203.099 41.2608C202.874 41.2709 202.601 41.2642 202.455 41.2407C202.314 41.2205 202.092 41.1736 201.96 41.1367C201.829 41.0964 201.613 41.0193 201.481 40.9589C201.349 40.8985 201.146 40.7844 201.032 40.7106C200.918 40.6368 200.741 40.506 200.642 40.4221C200.543 40.3382 200.37 40.1671 200.256 40.0397C200.142 39.9155 199.977 39.7075 199.893 39.5767C199.807 39.4459 199.675 39.2144 199.6 39.0567C199.525 38.899 199.423 38.634 199.372 38.4696C199.324 38.3052 199.261 38.0469 199.235 37.8993C199.202 37.7249 199.184 37.4665 199.184 37.1612C199.184 36.8157 199.202 36.601 199.246 36.346C199.282 36.1582 199.342 35.9099 199.381 35.7925C199.42 35.6784 199.501 35.4704 199.561 35.3329C199.624 35.1953 199.735 34.9773 199.813 34.8464C199.89 34.7156 200.061 34.4841 200.196 34.3265C200.331 34.1688 200.546 33.9574 200.675 33.8501C200.807 33.7461 201.014 33.6018 201.137 33.5247C201.259 33.4509 201.475 33.3435 201.616 33.2865C201.757 33.2294 201.957 33.1556 202.065 33.1288Z" fill="white"/>
<path d="M176.412 33.5307C176.416 33.3221 176.422 33.133 176.423 33.0723C176.424 33.0593 176.429 33.0499 176.442 33.0483C176.57 33.0326 177.351 33.0271 178.285 33.0376C179.909 33.0491 180.173 33.0605 180.377 33.1179C180.507 33.1561 180.735 33.2402 180.889 33.3128C181.042 33.3816 181.278 33.5268 181.42 33.6377C181.561 33.7447 181.758 33.932 181.864 34.0505C181.966 34.169 182.12 34.3983 182.206 34.555C182.289 34.7117 182.395 34.9793 182.442 35.1474C182.501 35.3653 182.525 35.5679 182.525 35.8545C182.525 36.0762 182.505 36.3361 182.482 36.4393C182.462 36.5387 182.395 36.7336 182.34 36.8789C182.285 37.0203 182.187 37.2229 182.12 37.3261C182.053 37.4331 181.919 37.6089 181.817 37.7236C181.719 37.8382 181.53 38.0102 181.4 38.102C181.27 38.1937 181.046 38.3275 180.9 38.4001C180.751 38.4727 180.487 38.5644 180.31 38.6065C180.047 38.6676 179.846 38.6829 179.288 38.6829C178.847 38.6829 178.587 38.6982 178.587 38.7211C178.587 38.7441 178.945 38.9849 179.386 39.2601C179.823 39.5353 180.696 40.0856 181.321 40.4831C181.887 40.8429 182.366 41.1588 182.458 41.2297C182.469 41.2384 182.47 41.2497 182.456 41.2527C182.375 41.2703 181.992 41.2816 180.827 41.282C180.791 41.282 180.754 41.2717 180.724 41.2524L180.208 40.9265C179.906 40.7382 179.073 40.2122 177.069 38.9498C177.013 38.9149 176.978 38.8534 176.978 38.7879L176.975 37.9195C176.975 37.8135 177.061 37.7274 177.167 37.7274H178.422C179.583 37.7274 179.909 37.7159 180.094 37.6701C180.216 37.6395 180.401 37.5707 180.503 37.521C180.609 37.4713 180.798 37.3375 180.928 37.2229C181.074 37.0929 181.215 36.9171 181.298 36.768C181.373 36.6342 181.455 36.4393 181.487 36.3323C181.514 36.2291 181.538 36.0112 181.538 35.8545C181.538 35.6749 181.51 35.4761 181.463 35.3194C181.42 35.1818 181.333 34.9946 181.27 34.899C181.211 34.8034 181.097 34.662 181.022 34.5779C180.948 34.4977 180.802 34.3754 180.692 34.3066C180.586 34.2378 180.389 34.1422 180.259 34.0925C180.028 34.0025 180.016 34.0008 176.6 33.9791C176.494 33.9784 176.406 33.8908 176.408 33.7843L176.412 33.5307Z" fill="white"/>
<path d="M190.758 41.2653C190.652 41.2653 190.566 41.1796 190.566 41.0739V33.2237C190.566 33.1179 190.652 33.0322 190.758 33.0322H192.865C194.012 33.0322 194.933 33.4117 195.625 34.1706C196.325 34.9295 196.675 35.9222 196.675 37.1488C196.675 38.383 196.325 39.3795 195.625 40.1384C194.933 40.8897 194.012 41.2653 192.865 41.2653H190.758ZM191.723 34.0441C191.618 34.0441 191.532 34.1298 191.532 34.2356V40.062C191.532 40.1677 191.618 40.2534 191.723 40.2534H192.865C193.74 40.2534 194.429 39.9813 194.933 39.437C195.436 38.8851 195.688 38.1223 195.688 37.1488C195.688 36.1829 195.436 35.424 194.933 34.872C194.429 34.3201 193.74 34.0441 192.865 34.0441H191.723Z" fill="white"/>
<path d="M198.517 41.1504C198.517 41.2139 198.465 41.2653 198.402 41.2653H197.574C197.51 41.2653 197.459 41.2139 197.459 41.1504V33.1471C197.459 33.0837 197.51 33.0322 197.574 33.0322H198.402C198.465 33.0322 198.517 33.0837 198.517 33.1471V41.1504Z" fill="white"/>
<path d="M172.27 48.6172C172.011 48.6172 171.79 48.5656 171.609 48.4625C171.428 48.3562 171.289 48.2187 171.192 48.05C171.098 47.8781 171.051 47.6921 171.051 47.4921C171.051 47.3984 171.062 47.3093 171.084 47.2249C171.109 47.1374 171.139 47.0562 171.173 46.9812C171.211 46.903 171.247 46.8343 171.281 46.7749C171.318 46.7124 171.351 46.6624 171.379 46.6249L172.27 45.3826C172.286 45.367 172.304 45.3482 172.326 45.3264C172.348 45.3014 172.381 45.2889 172.425 45.2889H172.673C172.701 45.2889 172.723 45.2998 172.739 45.3217C172.758 45.3404 172.767 45.3639 172.767 45.392C172.767 45.4045 172.765 45.417 172.762 45.4295C172.759 45.4389 172.754 45.4467 172.748 45.4529L172.064 46.4092C172.101 46.3967 172.143 46.3889 172.19 46.3858C172.24 46.3796 172.287 46.3764 172.331 46.3764C172.503 46.3796 172.659 46.4108 172.8 46.4702C172.94 46.5296 173.061 46.6108 173.161 46.7139C173.264 46.814 173.342 46.9312 173.395 47.0655C173.448 47.1968 173.475 47.3374 173.475 47.4874C173.475 47.6843 173.428 47.8687 173.334 48.0406C173.24 48.2125 173.103 48.3515 172.922 48.4578C172.743 48.5641 172.526 48.6172 172.27 48.6172ZM172.265 48.2187C172.397 48.2187 172.518 48.1906 172.631 48.1343C172.743 48.0781 172.834 47.9968 172.903 47.8906C172.975 47.7812 173.011 47.6484 173.011 47.4921C173.011 47.3327 172.976 47.1999 172.908 47.0937C172.839 46.9843 172.747 46.903 172.631 46.8499C172.518 46.7936 172.397 46.7655 172.265 46.7655C172.134 46.7655 172.012 46.7936 171.9 46.8499C171.787 46.903 171.695 46.9843 171.623 47.0937C171.554 47.1999 171.52 47.3327 171.52 47.4921C171.52 47.6484 171.554 47.7812 171.623 47.8906C171.695 47.9968 171.787 48.0781 171.9 48.1343C172.012 48.1906 172.134 48.2187 172.265 48.2187ZM174.949 48.5703C174.774 48.5703 174.632 48.5375 174.523 48.4719C174.413 48.4031 174.334 48.3078 174.284 48.1859C174.234 48.0609 174.209 47.914 174.209 47.7453V46.5077H173.843C173.812 46.5077 173.785 46.4983 173.763 46.4796C173.745 46.4577 173.735 46.4311 173.735 46.3999V46.2405C173.735 46.2092 173.745 46.1842 173.763 46.1655C173.785 46.1436 173.812 46.1327 173.843 46.1327H174.209V45.3498C174.209 45.3186 174.218 45.2936 174.237 45.2748C174.259 45.2529 174.285 45.242 174.316 45.242H174.537C174.568 45.242 174.593 45.2529 174.612 45.2748C174.634 45.2936 174.645 45.3186 174.645 45.3498V46.1327H175.226C175.257 46.1327 175.282 46.1436 175.301 46.1655C175.323 46.1842 175.334 46.2092 175.334 46.2405V46.3999C175.334 46.4311 175.323 46.4577 175.301 46.4796C175.282 46.4983 175.257 46.5077 175.226 46.5077H174.645V47.7124C174.645 47.8593 174.67 47.975 174.72 48.0593C174.77 48.1437 174.859 48.1859 174.987 48.1859H175.273C175.304 48.1859 175.329 48.1969 175.348 48.2187C175.37 48.2375 175.381 48.2625 175.381 48.2937V48.4625C175.381 48.4937 175.37 48.5203 175.348 48.5422C175.329 48.5609 175.304 48.5703 175.273 48.5703H174.949ZM175.941 48.5703C175.91 48.5703 175.883 48.5609 175.862 48.5422C175.843 48.5203 175.833 48.4937 175.833 48.4625V45.3498C175.833 45.3186 175.843 45.2936 175.862 45.2748C175.883 45.2529 175.91 45.242 175.941 45.242H176.176C176.21 45.242 176.237 45.2529 176.255 45.2748C176.274 45.2936 176.284 45.3186 176.284 45.3498V46.4421C176.368 46.3358 176.471 46.2499 176.593 46.1842C176.715 46.1186 176.869 46.0858 177.057 46.0858C177.26 46.0858 177.432 46.1311 177.573 46.2217C177.716 46.3092 177.824 46.4327 177.896 46.5921C177.971 46.7483 178.009 46.9312 178.009 47.1405V48.4625C178.009 48.4937 177.999 48.5203 177.981 48.5422C177.962 48.5609 177.935 48.5703 177.901 48.5703H177.666C177.635 48.5703 177.609 48.5609 177.587 48.5422C177.568 48.5203 177.559 48.4937 177.559 48.4625V47.164C177.559 46.9452 177.505 46.7749 177.399 46.653C177.293 46.528 177.137 46.4655 176.93 46.4655C176.737 46.4655 176.58 46.528 176.462 46.653C176.343 46.7749 176.284 46.9452 176.284 47.164V48.4625C176.284 48.4937 176.274 48.5203 176.255 48.5422C176.237 48.5609 176.21 48.5703 176.176 48.5703H175.941ZM178.77 47.3609C178.739 47.3609 178.712 47.3515 178.69 47.3327C178.671 47.3109 178.662 47.2843 178.662 47.253V47.0749C178.662 47.0437 178.671 47.0187 178.69 46.9999C178.712 46.978 178.739 46.9671 178.77 46.9671H180.176C180.207 46.9671 180.232 46.978 180.251 46.9999C180.273 47.0187 180.284 47.0437 180.284 47.0749V47.253C180.284 47.2843 180.273 47.3109 180.251 47.3327C180.232 47.3515 180.207 47.3609 180.176 47.3609H178.77ZM182.1 48.6172C181.919 48.6172 181.751 48.5953 181.598 48.5516C181.448 48.5047 181.319 48.4391 181.209 48.3547C181.103 48.2672 181.02 48.1625 180.961 48.0406C180.901 47.9187 180.872 47.7812 180.872 47.6281C180.872 47.4374 180.917 47.2734 181.008 47.1359C181.101 46.9983 181.225 46.8936 181.378 46.8218C181.256 46.7499 181.161 46.6561 181.092 46.5405C181.023 46.4249 180.989 46.2874 180.989 46.128C180.989 45.9405 181.034 45.7826 181.125 45.6545C181.219 45.5233 181.348 45.4217 181.514 45.3498C181.683 45.2779 181.878 45.242 182.1 45.242C182.319 45.242 182.511 45.2779 182.676 45.3498C182.845 45.4186 182.975 45.5186 183.066 45.6498C183.159 45.7811 183.206 45.9389 183.206 46.1233C183.206 46.2827 183.172 46.4217 183.103 46.5405C183.034 46.6561 182.941 46.7499 182.822 46.8218C182.975 46.8936 183.097 46.9983 183.187 47.1359C183.281 47.2734 183.328 47.4374 183.328 47.6281C183.328 47.8312 183.277 48.0078 183.173 48.1578C183.07 48.3047 182.927 48.4187 182.742 48.5C182.558 48.5781 182.344 48.6172 182.1 48.6172ZM182.1 48.2422C182.244 48.2422 182.373 48.2172 182.489 48.1672C182.605 48.1172 182.697 48.0468 182.766 47.9562C182.834 47.8625 182.869 47.7531 182.869 47.6281C182.869 47.4999 182.834 47.3921 182.766 47.3046C182.697 47.214 182.605 47.1452 182.489 47.0983C182.373 47.0483 182.244 47.0233 182.1 47.0233C181.956 47.0233 181.825 47.0483 181.706 47.0983C181.59 47.1452 181.498 47.214 181.43 47.3046C181.361 47.3921 181.326 47.4999 181.326 47.6281C181.326 47.7531 181.361 47.8625 181.43 47.9562C181.498 48.0468 181.59 48.1172 181.706 48.1672C181.825 48.2172 181.956 48.2422 182.1 48.2422ZM182.1 46.653C182.219 46.653 182.328 46.6311 182.428 46.5874C182.531 46.5436 182.612 46.4842 182.672 46.4092C182.734 46.3342 182.766 46.2436 182.766 46.1374C182.766 46.0311 182.736 45.9389 182.676 45.8608C182.62 45.7826 182.541 45.7233 182.437 45.6826C182.337 45.6389 182.225 45.617 182.1 45.617C181.975 45.617 181.861 45.6389 181.758 45.6826C181.658 45.7233 181.578 45.7826 181.519 45.8608C181.459 45.9389 181.43 46.0311 181.43 46.1374C181.43 46.2467 181.459 46.3405 181.519 46.4186C181.578 46.4936 181.658 46.5514 181.758 46.5921C181.861 46.6327 181.975 46.653 182.1 46.653ZM184.888 48.5703C184.713 48.5703 184.571 48.5375 184.461 48.4719C184.352 48.4031 184.272 48.3078 184.222 48.1859C184.172 48.0609 184.147 47.914 184.147 47.7453V46.5077H183.782C183.75 46.5077 183.724 46.4983 183.702 46.4796C183.683 46.4577 183.674 46.4311 183.674 46.3999V46.2405C183.674 46.2092 183.683 46.1842 183.702 46.1655C183.724 46.1436 183.75 46.1327 183.782 46.1327H184.147V45.3498C184.147 45.3186 184.157 45.2936 184.175 45.2748C184.197 45.2529 184.224 45.242 184.255 45.242H184.475C184.507 45.242 184.532 45.2529 184.55 45.2748C184.572 45.2936 184.583 45.3186 184.583 45.3498V46.1327H185.164C185.196 46.1327 185.221 46.1436 185.239 46.1655C185.261 46.1842 185.272 46.2092 185.272 46.2405V46.3999C185.272 46.4311 185.261 46.4577 185.239 46.4796C185.221 46.4983 185.196 46.5077 185.164 46.5077H184.583V47.7124C184.583 47.8593 184.608 47.975 184.658 48.0593C184.708 48.1437 184.797 48.1859 184.925 48.1859H185.211C185.243 48.1859 185.268 48.1969 185.286 48.2187C185.308 48.2375 185.319 48.2625 185.319 48.2937V48.4625C185.319 48.4937 185.308 48.5203 185.286 48.5422C185.268 48.5609 185.243 48.5703 185.211 48.5703H184.888ZM185.88 48.5703C185.849 48.5703 185.822 48.5609 185.8 48.5422C185.782 48.5203 185.772 48.4937 185.772 48.4625V45.3498C185.772 45.3186 185.782 45.2936 185.8 45.2748C185.822 45.2529 185.849 45.242 185.88 45.242H186.114C186.149 45.242 186.175 45.2529 186.194 45.2748C186.213 45.2936 186.222 45.3186 186.222 45.3498V46.4421C186.307 46.3358 186.41 46.2499 186.532 46.1842C186.653 46.1186 186.808 46.0858 186.996 46.0858C187.199 46.0858 187.371 46.1311 187.511 46.2217C187.655 46.3092 187.763 46.4327 187.835 46.5921C187.91 46.7483 187.947 46.9312 187.947 47.1405V48.4625C187.947 48.4937 187.938 48.5203 187.919 48.5422C187.9 48.5609 187.874 48.5703 187.839 48.5703H187.605C187.574 48.5703 187.547 48.5609 187.525 48.5422C187.507 48.5203 187.497 48.4937 187.497 48.4625V47.164C187.497 46.9452 187.444 46.7749 187.338 46.653C187.232 46.528 187.075 46.4655 186.869 46.4655C186.675 46.4655 186.519 46.528 186.4 46.653C186.282 46.7749 186.222 46.9452 186.222 47.164V48.4625C186.222 48.4937 186.213 48.5203 186.194 48.5422C186.175 48.5609 186.149 48.5703 186.114 48.5703H185.88ZM189.942 48.5703C189.908 48.5703 189.881 48.5609 189.862 48.5422C189.843 48.5203 189.834 48.4937 189.834 48.4625V45.4014C189.834 45.367 189.843 45.3404 189.862 45.3217C189.881 45.2998 189.908 45.2889 189.942 45.2889H191.855C191.889 45.2889 191.915 45.2998 191.934 45.3217C191.953 45.3404 191.962 45.367 191.962 45.4014V45.5889C191.962 45.6233 191.953 45.6498 191.934 45.6686C191.915 45.6873 191.889 45.6967 191.855 45.6967H190.289V46.789H191.761C191.795 46.789 191.822 46.7999 191.84 46.8218C191.859 46.8405 191.869 46.8671 191.869 46.9015V47.089C191.869 47.1202 191.859 47.1468 191.84 47.1687C191.822 47.1874 191.795 47.1968 191.761 47.1968H190.289V48.4625C190.289 48.4937 190.278 48.5203 190.256 48.5422C190.237 48.5609 190.211 48.5703 190.176 48.5703H189.942ZM193.431 48.6172C193.109 48.6172 192.853 48.5187 192.662 48.3219C192.471 48.1218 192.367 47.85 192.348 47.5062C192.345 47.4656 192.343 47.414 192.343 47.3515C192.343 47.2859 192.345 47.2327 192.348 47.1921C192.36 46.9702 192.412 46.7765 192.503 46.6108C192.593 46.4421 192.717 46.3124 192.873 46.2217C193.032 46.1311 193.218 46.0858 193.431 46.0858C193.668 46.0858 193.867 46.1358 194.026 46.2358C194.189 46.3358 194.312 46.478 194.396 46.6624C194.481 46.8468 194.523 47.0624 194.523 47.3093V47.389C194.523 47.4234 194.512 47.4499 194.49 47.4687C194.471 47.4874 194.446 47.4968 194.415 47.4968H192.793C192.793 47.4999 192.793 47.5062 192.793 47.5156C192.793 47.5249 192.793 47.5327 192.793 47.539C192.799 47.6671 192.828 47.7875 192.878 47.9C192.928 48.0093 192.999 48.0984 193.093 48.1672C193.187 48.2359 193.299 48.2703 193.431 48.2703C193.543 48.2703 193.637 48.2531 193.712 48.2187C193.787 48.1844 193.848 48.1468 193.895 48.1062C193.942 48.0625 193.973 48.0297 193.989 48.0078C194.017 47.9672 194.039 47.9437 194.054 47.9375C194.07 47.9281 194.095 47.9234 194.129 47.9234H194.354C194.385 47.9234 194.41 47.9328 194.429 47.9515C194.451 47.9672 194.46 47.9906 194.457 48.0218C194.454 48.0687 194.429 48.1265 194.382 48.1953C194.335 48.2609 194.268 48.3265 194.181 48.3922C194.093 48.4578 193.987 48.5125 193.862 48.5562C193.737 48.5969 193.593 48.6172 193.431 48.6172ZM192.793 47.1734H194.078V47.1593C194.078 47.0187 194.051 46.8936 193.998 46.7843C193.948 46.6749 193.875 46.5889 193.778 46.5264C193.681 46.4608 193.565 46.428 193.431 46.428C193.296 46.428 193.181 46.4608 193.084 46.5264C192.99 46.5889 192.918 46.6749 192.868 46.7843C192.818 46.8936 192.793 47.0187 192.793 47.1593V47.1734ZM196.288 48.6172C196.101 48.6172 195.945 48.5844 195.819 48.5187C195.694 48.45 195.594 48.3656 195.519 48.2656V48.4625C195.519 48.4937 195.509 48.5203 195.487 48.5422C195.468 48.5609 195.443 48.5703 195.412 48.5703H195.196C195.165 48.5703 195.138 48.5609 195.116 48.5422C195.098 48.5203 195.088 48.4937 195.088 48.4625V45.3498C195.088 45.3186 195.098 45.2936 195.116 45.2748C195.138 45.2529 195.165 45.242 195.196 45.242H195.421C195.455 45.242 195.482 45.2529 195.501 45.2748C195.519 45.2936 195.529 45.3186 195.529 45.3498V46.428C195.607 46.3311 195.707 46.2499 195.829 46.1842C195.954 46.1186 196.107 46.0858 196.288 46.0858C196.463 46.0858 196.612 46.117 196.734 46.1795C196.859 46.2389 196.96 46.3217 197.038 46.428C197.12 46.5343 197.181 46.6546 197.221 46.789C197.262 46.9233 197.284 47.064 197.287 47.2109C197.29 47.2609 197.291 47.3077 197.291 47.3515C197.291 47.3952 197.29 47.4421 197.287 47.4921C197.284 47.6421 197.262 47.7843 197.221 47.9187C197.181 48.0531 197.12 48.1734 197.038 48.2797C196.96 48.3828 196.859 48.4656 196.734 48.5281C196.612 48.5875 196.463 48.6172 196.288 48.6172ZM196.19 48.2375C196.352 48.2375 196.479 48.2031 196.57 48.1343C196.663 48.0625 196.73 47.9703 196.771 47.8578C196.812 47.7421 196.835 47.6187 196.841 47.4874C196.845 47.3968 196.845 47.3062 196.841 47.2155C196.835 47.0843 196.812 46.9624 196.771 46.8499C196.73 46.7343 196.663 46.6421 196.57 46.5733C196.479 46.5014 196.352 46.4655 196.19 46.4655C196.043 46.4655 195.921 46.4999 195.824 46.5686C195.727 46.6374 195.654 46.7249 195.604 46.8311C195.557 46.9374 195.532 47.0452 195.529 47.1546C195.526 47.2046 195.524 47.2655 195.524 47.3374C195.524 47.4062 195.526 47.4656 195.529 47.5156C195.535 47.6312 195.56 47.7453 195.604 47.8578C195.651 47.9672 195.721 48.0578 195.815 48.1297C195.912 48.2015 196.037 48.2375 196.19 48.2375ZM197.979 48.5703C197.948 48.5703 197.921 48.5609 197.9 48.5422C197.881 48.5203 197.871 48.4937 197.871 48.4625V46.2452C197.871 46.2139 197.881 46.1874 197.9 46.1655C197.921 46.1436 197.948 46.1327 197.979 46.1327H198.195C198.226 46.1327 198.253 46.1436 198.275 46.1655C198.296 46.1874 198.307 46.2139 198.307 46.2452V46.4514C198.37 46.3452 198.456 46.2655 198.565 46.2124C198.675 46.1592 198.806 46.1327 198.959 46.1327H199.147C199.178 46.1327 199.203 46.1436 199.222 46.1655C199.24 46.1842 199.25 46.2092 199.25 46.2405V46.4327C199.25 46.4639 199.24 46.4889 199.222 46.5077C199.203 46.5264 199.178 46.5358 199.147 46.5358H198.865C198.697 46.5358 198.564 46.5858 198.467 46.6858C198.37 46.7827 198.321 46.9155 198.321 47.0843V48.4625C198.321 48.4937 198.311 48.5203 198.289 48.5422C198.267 48.5609 198.24 48.5703 198.209 48.5703H197.979ZM200.562 48.6172C200.362 48.6172 200.191 48.5734 200.051 48.4859C199.913 48.3953 199.809 48.2703 199.737 48.1109C199.665 47.9515 199.629 47.7687 199.629 47.5624V46.2405C199.629 46.2092 199.638 46.1842 199.657 46.1655C199.679 46.1436 199.705 46.1327 199.737 46.1327H199.971C200.002 46.1327 200.027 46.1436 200.046 46.1655C200.068 46.1842 200.079 46.2092 200.079 46.2405V47.539C200.079 48.0047 200.282 48.2375 200.688 48.2375C200.882 48.2375 201.037 48.1765 201.152 48.0547C201.271 47.9296 201.331 47.7578 201.331 47.539V46.2405C201.331 46.2092 201.34 46.1842 201.359 46.1655C201.381 46.1436 201.407 46.1327 201.438 46.1327H201.668C201.702 46.1327 201.729 46.1436 201.748 46.1655C201.766 46.1842 201.776 46.2092 201.776 46.2405V48.4625C201.776 48.4937 201.766 48.5203 201.748 48.5422C201.729 48.5609 201.702 48.5703 201.668 48.5703H201.452C201.421 48.5703 201.395 48.5609 201.373 48.5422C201.354 48.5203 201.345 48.4937 201.345 48.4625V48.2562C201.26 48.3656 201.157 48.4531 201.035 48.5187C200.916 48.5844 200.759 48.6172 200.562 48.6172ZM203.152 48.6172C202.996 48.6172 202.854 48.5859 202.725 48.5234C202.597 48.4609 202.494 48.3766 202.416 48.2703C202.338 48.164 202.299 48.0437 202.299 47.9093C202.299 47.6937 202.386 47.5218 202.561 47.3937C202.736 47.2655 202.964 47.1812 203.246 47.1405L203.944 47.0421V46.9061C203.944 46.7561 203.9 46.6389 203.813 46.5546C203.729 46.4702 203.59 46.428 203.396 46.428C203.255 46.428 203.141 46.4561 203.054 46.5124C202.969 46.5686 202.91 46.6405 202.875 46.728C202.857 46.7749 202.824 46.7983 202.777 46.7983H202.566C202.532 46.7983 202.505 46.789 202.486 46.7702C202.471 46.7483 202.463 46.7233 202.463 46.6952C202.463 46.6483 202.48 46.5905 202.514 46.5218C202.552 46.453 202.608 46.3858 202.683 46.3202C202.758 46.2545 202.854 46.1999 202.969 46.1561C203.088 46.1092 203.232 46.0858 203.4 46.0858C203.588 46.0858 203.746 46.1108 203.874 46.1608C204.002 46.2077 204.102 46.2717 204.174 46.353C204.249 46.4342 204.302 46.5264 204.333 46.6296C204.368 46.7327 204.385 46.8374 204.385 46.9437V48.4625C204.385 48.4937 204.374 48.5203 204.352 48.5422C204.333 48.5609 204.308 48.5703 204.277 48.5703H204.061C204.027 48.5703 204 48.5609 203.982 48.5422C203.963 48.5203 203.954 48.4937 203.954 48.4625V48.2609C203.913 48.3172 203.858 48.3734 203.79 48.4297C203.721 48.4828 203.635 48.5281 203.532 48.5656C203.429 48.6 203.302 48.6172 203.152 48.6172ZM203.25 48.2656C203.379 48.2656 203.496 48.239 203.602 48.1859C203.708 48.1297 203.791 48.0437 203.85 47.9281C203.913 47.8125 203.944 47.6671 203.944 47.4921V47.3609L203.4 47.4406C203.179 47.4718 203.011 47.5249 202.899 47.5999C202.786 47.6718 202.73 47.764 202.73 47.8765C202.73 47.964 202.755 48.0375 202.805 48.0968C202.858 48.1531 202.924 48.1953 203.002 48.2234C203.083 48.2515 203.166 48.2656 203.25 48.2656ZM205.167 48.5703C205.135 48.5703 205.109 48.5609 205.087 48.5422C205.068 48.5203 205.059 48.4937 205.059 48.4625V46.2452C205.059 46.2139 205.068 46.1874 205.087 46.1655C205.109 46.1436 205.135 46.1327 205.167 46.1327H205.382C205.414 46.1327 205.44 46.1436 205.462 46.1655C205.484 46.1874 205.495 46.2139 205.495 46.2452V46.4514C205.557 46.3452 205.643 46.2655 205.753 46.2124C205.862 46.1592 205.993 46.1327 206.146 46.1327H206.334C206.365 46.1327 206.39 46.1436 206.409 46.1655C206.428 46.1842 206.437 46.2092 206.437 46.2405V46.4327C206.437 46.4639 206.428 46.4889 206.409 46.5077C206.39 46.5264 206.365 46.5358 206.334 46.5358H206.053C205.884 46.5358 205.751 46.5858 205.654 46.6858C205.557 46.7827 205.509 46.9155 205.509 47.0843V48.4625C205.509 48.4937 205.498 48.5203 205.476 48.5422C205.454 48.5609 205.428 48.5703 205.396 48.5703H205.167ZM207.266 49.461C207.241 49.461 207.219 49.4516 207.201 49.4329C207.182 49.4141 207.172 49.3922 207.172 49.3672C207.172 49.3547 207.174 49.3422 207.177 49.3297C207.18 49.3172 207.186 49.3016 207.196 49.2829L207.557 48.425L206.661 46.3108C206.646 46.2733 206.638 46.2467 206.638 46.2311C206.638 46.203 206.647 46.1795 206.666 46.1608C206.685 46.142 206.708 46.1327 206.736 46.1327H206.966C206.997 46.1327 207.022 46.1405 207.041 46.1561C207.06 46.1717 207.072 46.1905 207.079 46.2124L207.791 47.9187L208.523 46.2124C208.532 46.1905 208.544 46.1717 208.56 46.1561C208.579 46.1405 208.605 46.1327 208.64 46.1327H208.86C208.888 46.1327 208.912 46.142 208.93 46.1608C208.949 46.1795 208.958 46.2014 208.958 46.2264C208.958 46.242 208.951 46.2702 208.935 46.3108L207.604 49.3813C207.594 49.4032 207.58 49.4219 207.562 49.4376C207.546 49.4532 207.521 49.461 207.487 49.461H207.266ZM210.438 48.5703C210.406 48.5703 210.38 48.5609 210.358 48.5422C210.339 48.5203 210.33 48.4937 210.33 48.4625V48.3125C210.33 48.2844 210.338 48.2531 210.353 48.2187C210.369 48.1844 210.4 48.1468 210.447 48.1062L211.441 47.1124C211.6 46.978 211.725 46.864 211.816 46.7702C211.91 46.6733 211.975 46.5811 212.013 46.4936C212.053 46.4061 212.074 46.3155 212.074 46.2217C212.074 46.0436 212.024 45.903 211.924 45.7998C211.824 45.6936 211.675 45.6404 211.478 45.6404C211.353 45.6404 211.245 45.667 211.155 45.7201C211.064 45.7701 210.992 45.8405 210.939 45.9311C210.889 46.0186 210.856 46.1186 210.841 46.2311C210.835 46.2717 210.817 46.2999 210.789 46.3155C210.764 46.3311 210.741 46.3389 210.719 46.3389H210.475C210.447 46.3389 210.424 46.3311 210.405 46.3155C210.386 46.2967 210.377 46.2749 210.377 46.2499C210.38 46.1311 210.405 46.0123 210.452 45.8936C210.499 45.7717 210.567 45.6623 210.658 45.5654C210.752 45.4686 210.866 45.3904 211 45.3311C211.138 45.2685 211.297 45.2373 211.478 45.2373C211.725 45.2373 211.927 45.2826 212.083 45.3732C212.242 45.4607 212.36 45.5779 212.435 45.7248C212.51 45.8717 212.547 46.0327 212.547 46.2077C212.547 46.3452 212.524 46.4717 212.477 46.5874C212.43 46.6999 212.361 46.8108 212.271 46.9202C212.183 47.0265 212.074 47.1359 211.942 47.2484L211.042 48.1625H212.505C212.539 48.1625 212.566 48.1719 212.585 48.1906C212.607 48.2094 212.617 48.2359 212.617 48.2703V48.4625C212.617 48.4937 212.607 48.5203 212.585 48.5422C212.566 48.5609 212.539 48.5703 212.505 48.5703H210.438ZM214.337 48.6172C214.122 48.6172 213.939 48.5844 213.789 48.5187C213.642 48.45 213.522 48.3562 213.428 48.2375C213.334 48.1187 213.266 47.9828 213.222 47.8296C213.181 47.6765 213.158 47.514 213.151 47.3421C213.148 47.2577 213.145 47.1687 213.142 47.0749C213.142 46.9812 213.142 46.8874 213.142 46.7936C213.145 46.6968 213.148 46.6046 213.151 46.5171C213.155 46.3452 213.178 46.1827 213.222 46.0295C213.269 45.8733 213.337 45.7373 213.428 45.6217C213.522 45.5029 213.644 45.4107 213.794 45.3451C213.944 45.2764 214.125 45.242 214.337 45.242C214.553 45.242 214.734 45.2764 214.881 45.3451C215.031 45.4107 215.153 45.5029 215.247 45.6217C215.341 45.7373 215.409 45.8733 215.453 46.0295C215.5 46.1827 215.525 46.3452 215.528 46.5171C215.531 46.6046 215.533 46.6968 215.533 46.7936C215.536 46.8874 215.536 46.9812 215.533 47.0749C215.533 47.1687 215.531 47.2577 215.528 47.3421C215.525 47.514 215.5 47.6765 215.453 47.8296C215.409 47.9828 215.341 48.1187 215.247 48.2375C215.156 48.3562 215.036 48.45 214.886 48.5187C214.739 48.5844 214.556 48.6172 214.337 48.6172ZM214.337 48.2187C214.581 48.2187 214.761 48.139 214.877 47.9797C214.995 47.8171 215.056 47.5968 215.059 47.3187C215.066 47.228 215.069 47.1405 215.069 47.0562C215.069 46.9687 215.069 46.8827 215.069 46.7983C215.069 46.7108 215.066 46.6249 215.059 46.5405C215.056 46.2686 214.995 46.0514 214.877 45.8889C214.761 45.7233 214.581 45.6404 214.337 45.6404C214.097 45.6404 213.917 45.7233 213.798 45.8889C213.683 46.0514 213.622 46.2686 213.616 46.5405C213.616 46.6249 213.614 46.7108 213.611 46.7983C213.611 46.8827 213.611 46.9687 213.611 47.0562C213.614 47.1405 213.616 47.228 213.616 47.3187C213.622 47.5968 213.684 47.8171 213.803 47.9797C213.922 48.139 214.1 48.2187 214.337 48.2187ZM216.165 48.5703C216.133 48.5703 216.107 48.5609 216.085 48.5422C216.066 48.5203 216.057 48.4937 216.057 48.4625V48.3125C216.057 48.2844 216.065 48.2531 216.08 48.2187C216.096 48.1844 216.127 48.1468 216.174 48.1062L217.168 47.1124C217.327 46.978 217.452 46.864 217.543 46.7702C217.637 46.6733 217.702 46.5811 217.74 46.4936C217.78 46.4061 217.801 46.3155 217.801 46.2217C217.801 46.0436 217.751 45.903 217.651 45.7998C217.551 45.6936 217.402 45.6404 217.205 45.6404C217.08 45.6404 216.972 45.667 216.882 45.7201C216.791 45.7701 216.719 45.8405 216.666 45.9311C216.616 46.0186 216.583 46.1186 216.568 46.2311C216.561 46.2717 216.544 46.2999 216.516 46.3155C216.491 46.3311 216.468 46.3389 216.446 46.3389H216.202C216.174 46.3389 216.151 46.3311 216.132 46.3155C216.113 46.2967 216.104 46.2749 216.104 46.2499C216.107 46.1311 216.132 46.0123 216.179 45.8936C216.226 45.7717 216.294 45.6623 216.385 45.5654C216.479 45.4686 216.593 45.3904 216.727 45.3311C216.865 45.2685 217.024 45.2373 217.205 45.2373C217.452 45.2373 217.654 45.2826 217.81 45.3732C217.969 45.4607 218.087 45.5779 218.162 45.7248C218.237 45.8717 218.274 46.0327 218.274 46.2077C218.274 46.3452 218.251 46.4717 218.204 46.5874C218.157 46.6999 218.088 46.8108 217.998 46.9202C217.91 47.0265 217.801 47.1359 217.669 47.2484L216.769 48.1625H218.232C218.266 48.1625 218.293 48.1719 218.312 48.1906C218.333 48.2094 218.344 48.2359 218.344 48.2703V48.4625C218.344 48.4937 218.333 48.5203 218.312 48.5422C218.293 48.5609 218.266 48.5703 218.232 48.5703H216.165ZM220.022 48.6172C219.763 48.6172 219.543 48.5656 219.361 48.4625C219.18 48.3562 219.041 48.2187 218.944 48.05C218.85 47.8781 218.803 47.6921 218.803 47.4921C218.803 47.3984 218.814 47.3093 218.836 47.2249C218.861 47.1374 218.891 47.0562 218.925 46.9812C218.963 46.903 218.999 46.8343 219.033 46.7749C219.071 46.7124 219.103 46.6624 219.132 46.6249L220.022 45.3826C220.038 45.367 220.057 45.3482 220.078 45.3264C220.1 45.3014 220.133 45.2889 220.177 45.2889H220.425C220.454 45.2889 220.475 45.2998 220.491 45.3217C220.51 45.3404 220.519 45.3639 220.519 45.392C220.519 45.4045 220.518 45.417 220.514 45.4295C220.511 45.4389 220.507 45.4467 220.5 45.4529L219.816 46.4092C219.853 46.3967 219.896 46.3889 219.943 46.3858C219.993 46.3796 220.039 46.3764 220.083 46.3764C220.255 46.3796 220.411 46.4108 220.552 46.4702C220.693 46.5296 220.813 46.6108 220.913 46.7139C221.016 46.814 221.094 46.9312 221.147 47.0655C221.2 47.1968 221.227 47.3374 221.227 47.4874C221.227 47.6843 221.18 47.8687 221.086 48.0406C220.993 48.2125 220.855 48.3515 220.674 48.4578C220.496 48.5641 220.279 48.6172 220.022 48.6172ZM220.018 48.2187C220.149 48.2187 220.271 48.1906 220.383 48.1343C220.496 48.0781 220.586 47.9968 220.655 47.8906C220.727 47.7812 220.763 47.6484 220.763 47.4921C220.763 47.3327 220.729 47.1999 220.66 47.0937C220.591 46.9843 220.499 46.903 220.383 46.8499C220.271 46.7936 220.149 46.7655 220.018 46.7655C219.886 46.7655 219.764 46.7936 219.652 46.8499C219.539 46.903 219.447 46.9843 219.375 47.0937C219.307 47.1999 219.272 47.3327 219.272 47.4921C219.272 47.6484 219.307 47.7812 219.375 47.8906C219.447 47.9968 219.539 48.0781 219.652 48.1343C219.764 48.1906 219.886 48.2187 220.018 48.2187Z" fill="white"/>
<path d="M174.023 46.4083L62.2841 45.6246C61.8523 45.6216 61.5007 45.9708 61.5007 46.4026C61.5007 46.8344 61.8523 47.1836 62.2841 47.1806L174.023 46.4083Z" fill="#0081FF"/>
</g>
<line x1="240.5" y1="9.71289" x2="240.5" y2="41.7129" stroke="white" stroke-opacity="0.7" stroke-linecap="round"/>
<path d="M319.432 26.727V29.1484H307.689V13.5967H319.12V16.0181H310.597V20.0617H318.158V22.439H310.597V26.727H319.432Z" fill="white"/>
<path d="M321.354 21.8213H327.504V24.1323H321.354V21.8213Z" fill="white"/>
<path d="M333.918 28.3394C332.643 27.6505 331.644 26.6996 330.921 25.4852C330.198 24.2708 329.836 22.9003 329.836 21.3753C329.836 19.8503 330.201 18.4799 330.933 17.2655C331.663 16.0511 332.667 15.1002 333.941 14.4113C335.216 13.7224 336.645 13.3779 338.225 13.3779C339.507 13.3779 340.678 13.6002 341.737 14.0447C342.796 14.4893 343.691 15.134 344.421 15.9775L342.542 17.7321C341.408 16.5177 340.015 15.9098 338.36 15.9098C337.287 15.9098 336.325 16.1424 335.474 16.609C334.623 17.0756 333.961 17.7233 333.483 18.5535C333.006 19.3837 332.768 20.3229 332.768 21.3753C332.768 22.4278 333.006 23.367 333.483 24.1972C333.961 25.0274 334.625 25.6751 335.474 26.1417C336.325 26.6083 337.285 26.8409 338.36 26.8409C340.015 26.8409 341.41 26.2271 342.542 24.9965L344.421 26.7732C343.691 27.6167 342.793 28.2614 341.725 28.7059C340.658 29.1505 339.484 29.3728 338.202 29.3728C336.62 29.3728 335.192 29.0283 333.918 28.3394Z" fill="white"/>
<path d="M357.68 24.1076H348.307C348.471 24.9819 348.9 25.6738 349.593 26.1846C350.287 26.6953 351.148 26.9515 352.177 26.9515C353.488 26.9515 354.57 26.5217 355.42 25.6635L356.918 27.3739C356.382 28.0113 355.703 28.4927 354.883 28.818C354.062 29.1433 353.139 29.3067 352.11 29.3067C350.797 29.3067 349.642 29.0476 348.643 28.5295C347.644 28.0113 346.872 27.2886 346.328 26.3627C345.784 25.4368 345.512 24.3887 345.512 23.2199C345.512 22.0644 345.777 21.0237 346.306 20.0978C346.835 19.1719 347.57 18.4506 348.51 17.9325C349.45 17.4143 350.508 17.1553 351.686 17.1553C352.85 17.1553 353.89 17.4114 354.806 17.9222C355.723 18.433 356.439 19.1513 356.954 20.0772C357.468 21.0031 357.726 22.0732 357.726 23.2877C357.724 23.479 357.71 23.7528 357.68 24.1076ZM349.416 20.1641C348.796 20.6896 348.42 21.3902 348.286 22.2631H355.064C354.944 21.405 354.579 20.7072 353.967 20.1744C353.355 19.6415 352.595 19.3751 351.686 19.3751C350.791 19.3751 350.034 19.6385 349.416 20.1641Z" fill="white"/>
<path d="M360.412 12.666H363.209V29.151H360.412V12.666Z" fill="white"/>
<path d="M366.875 12.666H369.672V29.151H366.875V12.666Z" fill="white"/>
<path d="M307.922 34.3223H308.445V39.2447H307.922V34.3223Z" fill="white"/>
<path d="M311.371 34.3232H311.894V39.2456H311.371V34.3232Z" fill="white"/>
<path d="M315.779 34.7737H314.037V34.3232H318.043V34.7737H316.302V39.2456H315.779V34.7737Z" fill="white"/>
<path d="M329.9 39.2432L328.767 37.6608C328.64 37.6755 328.508 37.6814 328.372 37.6814H327.041V39.2417H326.518V34.3193H328.372C329.005 34.3193 329.5 34.4695 329.858 34.7698C330.217 35.0701 330.396 35.4822 330.396 36.0077C330.396 36.3919 330.298 36.7172 330.103 36.9822C329.907 37.2472 329.627 37.4385 329.264 37.5548L330.475 39.2417H329.9V39.2432ZM329.483 36.916C329.743 36.701 329.873 36.3978 329.873 36.0092C329.873 35.6103 329.743 35.3041 329.483 35.0921C329.224 34.8787 328.849 34.7727 328.358 34.7727H327.042V37.2398H328.358C328.847 37.2398 329.222 37.1323 329.483 36.916Z" fill="white"/>
<path d="M333.778 38.9593C333.379 38.7414 333.068 38.4426 332.844 38.0628C332.62 37.6831 332.508 37.2562 332.508 36.7837C332.508 36.3111 332.62 35.8828 332.844 35.5045C333.068 35.1247 333.379 34.8259 333.778 34.608C334.177 34.3902 334.621 34.2812 335.112 34.2812C335.602 34.2812 336.046 34.3887 336.44 34.6051C336.834 34.82 337.144 35.1188 337.371 35.5015C337.597 35.8843 337.71 36.3111 337.71 36.7851C337.71 37.2591 337.597 37.686 337.371 38.0687C337.144 38.4514 336.834 38.7503 336.44 38.9652C336.046 39.1801 335.604 39.289 335.112 39.289C334.621 39.2861 334.177 39.1771 333.778 38.9593ZM336.173 38.5589C336.489 38.3823 336.736 38.1394 336.917 37.8273C337.096 37.5152 337.187 37.1679 337.187 36.7837C337.187 36.3995 337.096 36.0521 336.917 35.74C336.738 35.4279 336.49 35.1851 336.173 35.0084C335.857 34.8318 335.503 34.7449 335.112 34.7449C334.721 34.7449 334.365 34.8333 334.046 35.0084C333.728 35.1836 333.477 35.4279 333.296 35.74C333.114 36.0521 333.024 36.3995 333.024 36.7837C333.024 37.1679 333.114 37.5152 333.296 37.8273C333.479 38.1394 333.728 38.3823 334.046 38.5589C334.365 38.7341 334.719 38.8224 335.112 38.8224C335.503 38.8224 335.857 38.7341 336.173 38.5589Z" fill="white"/>
<path d="M341.028 38.9593C340.629 38.7414 340.318 38.4426 340.094 38.0628C339.87 37.6831 339.758 37.2562 339.758 36.7837C339.758 36.3111 339.87 35.8828 340.094 35.5045C340.318 35.1247 340.629 34.8259 341.028 34.608C341.427 34.3902 341.871 34.2812 342.362 34.2812C342.852 34.2812 343.296 34.3887 343.69 34.6051C344.084 34.82 344.394 35.1188 344.621 35.5015C344.847 35.8843 344.96 36.3111 344.96 36.7851C344.96 37.2591 344.847 37.686 344.621 38.0687C344.394 38.4514 344.084 38.7503 343.69 38.9652C343.296 39.1801 342.854 39.289 342.362 39.289C341.871 39.2861 341.427 39.1771 341.028 38.9593ZM343.423 38.5589C343.739 38.3823 343.986 38.1394 344.167 37.8273C344.346 37.5152 344.437 37.1679 344.437 36.7837C344.437 36.3995 344.346 36.0521 344.167 35.74C343.988 35.4279 343.74 35.1851 343.423 35.0084C343.107 34.8318 342.753 34.7449 342.362 34.7449C341.971 34.7449 341.615 34.8333 341.296 35.0084C340.978 35.1836 340.727 35.4279 340.546 35.74C340.364 36.0521 340.274 36.3995 340.274 36.7837C340.274 37.1679 340.364 37.5152 340.546 37.8273C340.729 38.1394 340.978 38.3823 341.296 38.5589C341.615 38.7341 341.969 38.8224 342.362 38.8224C342.753 38.8224 343.107 38.7341 343.423 38.5589Z" fill="white"/>
<path d="M350.827 39.2432L349.695 37.6608C349.568 37.6755 349.436 37.6814 349.299 37.6814H347.968V39.2417H347.445V34.3193H349.299C349.932 34.3193 350.427 34.4695 350.786 34.7698C351.145 35.0701 351.324 35.4822 351.324 36.0077C351.324 36.3919 351.226 36.7172 351.031 36.9822C350.835 37.2472 350.555 37.4385 350.192 37.5548L351.403 39.2417H350.827V39.2432ZM350.411 36.916C350.67 36.701 350.801 36.3978 350.801 36.0092C350.801 35.6103 350.67 35.3041 350.411 35.0921C350.152 34.8787 349.777 34.7727 349.286 34.7727H347.97V37.2398H349.286C349.775 37.2398 350.152 37.1323 350.411 36.916Z" fill="white"/>
<path d="M355.407 36.9316L354.394 37.9517V39.2456H353.871V34.3232H354.394V37.2982L357.304 34.3232H357.905L355.761 36.5519L358.055 39.2442H357.433L355.407 36.9316Z" fill="white"/>
<path d="M363.721 38.7952V39.2456H360.217V34.3232H363.615V34.7737H360.741V36.5239H363.304V36.967H360.741V38.7952H363.721Z" fill="white"/>
<path d="M369.765 38.7952V39.2456H366.262V34.3232H369.66V34.7737H366.786V36.5239H369.349V36.967H366.786V38.7952H369.765Z" fill="white"/>
<path d="M294.445 21.8533C295.042 25.3276 294.78 28.337 292.405 31.0721C289.672 34.2197 285.404 38.7189 282.629 41.8322C281.163 39.1725 280.339 38.0231 278.082 35.32C283.117 29.668 288.373 23.7258 293.49 18.1436C293.911 19.3512 294.226 20.5942 294.445 21.8533Z" fill="#138AD5"/>
<path d="M286.343 51.4242C285.091 46.6851 283.918 44.6058 283.918 44.6058C284.533 44.0437 288.122 39.8678 289.394 38.3574C290.489 43.822 288.841 48.3635 286.343 51.4242Z" fill="#138AD5"/>
<path d="M294.918 1.29446C295.673 5.63711 295.764 10.535 292.803 14.1156C289.047 18.6559 284.967 22.9997 281.008 27.3675C280.092 28.3764 279.174 29.3829 278.258 30.3906C277.9 30.7848 275.911 33.1383 275.911 33.1383C269.359 26.8397 261.955 24.8963 261.016 24.6644C259.311 24.2451 258.186 24.6541 258.027 24.8083C257.803 24.5433 259.046 23.146 259.162 22.8661C259.522 21.9886 259.534 21.0621 260.048 20.2166C261.094 18.4983 263.092 18.0241 265.002 18.1955C267.224 18.3966 270.774 19.5562 273.774 18.9256C278.147 18.007 281.348 14.4172 284.847 10.8195C288.242 7.32916 291.387 3.60803 294.655 0C294.755 0.427296 294.844 0.859163 294.918 1.29446Z" fill="#138AD5"/>
<defs>
<linearGradient id="paint0_linear_43_3667" x1="4.23304" y1="10.5805" x2="46.1904" y2="40.1587" gradientUnits="userSpaceOnUse">
<stop stop-color="#0487C9"/>
<stop offset="0.493" stop-color="#0069CF"/>
<stop offset="0.978" stop-color="#0127C2"/>
</linearGradient>
<linearGradient id="paint1_linear_43_3667" x1="4.23304" y1="10.5805" x2="46.1904" y2="40.1587" gradientUnits="userSpaceOnUse">
<stop stop-color="#0487C9"/>
<stop offset="0.493" stop-color="#0376E7"/>
<stop offset="0.978" stop-color="#0046C9"/>
</linearGradient>
<linearGradient id="paint2_linear_43_3667" x1="180.118" y1="14.5451" x2="186.588" y2="18.5971" gradientUnits="userSpaceOnUse">
<stop stop-color="#26B7FF"/>
<stop offset="0.493" stop-color="#0081FF"/>
<stop offset="0.978" stop-color="#115ECA"/>
</linearGradient>
<clipPath id="clip0_43_3667">
<rect width="222" height="50" fill="white" transform="translate(0 0.711914)"/>
</clipPath>
</defs>
</svg>
