<svg width="33" height="32" viewBox="0 0 33 32" fill="none" xmlns="http://www.w3.org/2000/svg">
<path d="M0.00355674 15.4067C-0.162814 8.52732 5.52122 1.17596 14.1615 0.134768C19.33 -0.488503 23.8732 1.05346 27.6211 4.69041C28.2701 5.32089 28.2518 5.44158 27.3907 5.77123C23.4661 7.30599 19.5378 8.83595 15.6058 10.3611C14.7301 10.7016 13.8544 11.042 12.9841 11.3951C12.5033 11.5914 12.2071 11.9085 12.474 12.4543C12.7172 12.9515 13.0957 13.0361 13.6185 12.8308C18.5036 10.9201 23.393 9.01669 28.2866 7.12045C29.2501 6.74577 29.5353 6.85385 30.0838 7.74372C31.9285 10.7466 32.7951 14.0251 32.3362 17.4891C31.6615 22.5707 29.3451 26.7661 24.7965 29.542C18.7852 33.2114 11.3734 32.7394 5.87772 28.3477C5.67479 28.1856 5.32925 28.0469 5.38593 27.7551C5.43346 27.5047 5.78997 27.5029 6.01667 27.4146C11.2869 25.355 16.5578 23.2979 21.8292 21.2431C22.4874 20.9855 22.7123 20.5964 22.4801 20.1137C22.2077 19.5462 21.7323 19.5895 21.246 19.7786C17.0179 21.4203 12.7897 23.0643 8.56159 24.7108C7.23794 25.2259 5.91794 25.7507 4.6016 26.2852C4.16283 26.4653 3.85385 26.4058 3.53391 26.0041C1.17729 23.0553 -0.0403213 19.7246 0.00355674 15.4067Z" fill="url(#paint0_linear_43_3317)"/>
<path d="M0.00355674 15.4067C-0.162814 8.52732 5.52122 1.17596 14.1615 0.134768C19.33 -0.488503 23.8732 1.05346 27.6211 4.69041C28.2701 5.32089 28.2518 5.44158 27.3907 5.77123C23.4661 7.30599 19.5378 8.83595 15.6058 10.3611C14.7301 10.7016 13.8544 11.042 12.9841 11.3951C12.5033 11.5914 12.2071 11.9085 12.474 12.4543C12.7172 12.9515 13.0957 13.0361 13.6185 12.8308C18.5036 10.9201 23.393 9.01669 28.2866 7.12045C29.2501 6.74577 29.5353 6.85385 30.0838 7.74372C31.9285 10.7466 32.7951 14.0251 32.3362 17.4891C31.6615 22.5707 29.3451 26.7661 24.7965 29.542C18.7852 33.2114 11.3734 32.7394 5.87772 28.3477C5.67479 28.1856 5.32925 28.0469 5.38593 27.7551C5.43346 27.5047 5.78997 27.5029 6.01667 27.4146C11.2869 25.355 16.5578 23.2979 21.8292 21.2431C22.4874 20.9855 22.7123 20.5964 22.4801 20.1137C22.2077 19.5462 21.7323 19.5895 21.246 19.7786C17.0179 21.4203 12.7897 23.0643 8.56159 24.7108C7.23794 25.2259 5.91794 25.7507 4.6016 26.2852C4.16283 26.4653 3.85385 26.4058 3.53391 26.0041C1.17729 23.0553 -0.0403213 19.7246 0.00355674 15.4067Z" fill="url(#paint1_linear_43_3317)"/>
<defs>
<linearGradient id="paint0_linear_43_3317" x1="2.33458" y1="6.53501" x2="29.2323" y2="25.4695" gradientUnits="userSpaceOnUse">
<stop stop-color="#0487C9"/>
<stop offset="0.493" stop-color="#0069CF"/>
<stop offset="0.978" stop-color="#0127C2"/>
</linearGradient>
<linearGradient id="paint1_linear_43_3317" x1="2.33458" y1="6.53501" x2="29.2323" y2="25.4695" gradientUnits="userSpaceOnUse">
<stop stop-color="#0487C9"/>
<stop offset="0.493" stop-color="#0376E7"/>
<stop offset="0.978" stop-color="#0046C9"/>
</linearGradient>
</defs>
</svg>
