<svg width="21" height="21" viewBox="0 0 21 21" fill="none" xmlns="http://www.w3.org/2000/svg">
<path d="M10.5 0C4.70071 0 0 4.70071 0 10.5C0 16.2993 4.70071 21 10.5 21C16.2993 21 21 16.2986 21 10.5C21 4.70139 16.2993 0 10.5 0ZM10.5 19.6875C5.42586 19.6875 1.3125 15.5741 1.3125 10.5C1.3125 5.42586 5.42586 1.3125 10.5 1.3125C15.5741 1.3125 19.6875 5.42586 19.6875 10.5C19.6875 15.5741 15.5741 19.6875 10.5 19.6875ZM14.4375 9.84375H11.1563V6.5625C11.1563 6.20025 10.8623 5.90625 10.5 5.90625C10.1378 5.90625 9.84375 6.20025 9.84375 6.5625V9.84375H6.5625C6.20025 9.84375 5.90625 10.1378 5.90625 10.5C5.90625 10.8623 6.20025 11.1563 6.5625 11.1563H9.84375V14.4375C9.84375 14.7998 10.1378 15.0938 10.5 15.0938C10.8623 15.0938 11.1563 14.7998 11.1563 14.4375V11.1563H14.4375C14.7998 11.1563 15.0938 10.8623 15.0938 10.5C15.0938 10.1378 14.7998 9.84375 14.4375 9.84375Z" fill="url(#paint0_linear_43_3591)"/>
<defs>
<linearGradient id="paint0_linear_43_3591" x1="0" y1="10.5" x2="21" y2="10.5" gradientUnits="userSpaceOnUse">
<stop stop-color="#00C0FF"/>
<stop offset="1" stop-color="#5558FF"/>
</linearGradient>
</defs>
</svg>
